<svg width="52" height="88" viewBox="0 0 52 88" fill="none" xmlns="http://www.w3.org/2000/svg">
<path d="M12.3571 70.0511C14.7721 63.7335 16.9875 57.3242 19.6497 51.1151C23.4883 42.1737 27.3322 33.2094 31.7701 24.5636C35.4555 17.3797 40.1188 10.731 47.6893 6.91424C48.8389 6.33481 50.3672 6.29204 51.2448 5.48187C51.8845 4.88459 52.2337 3.11642 51.8075 2.45219C51.2773 1.61925 49.6833 0.78079 48.7781 0.979037C43.9758 2.02457 40.2025 5.00347 37.0197 8.55095C29.0399 17.4419 23.8296 28.034 19.31 38.9638C15.8615 47.304 12.6745 55.7544 9.39831 64.1688C8.58781 66.2537 7.90581 68.3876 7.10474 70.6833C6.19036 67.4077 5.36321 64.4038 4.51563 61.4006C4.41044 61.0249 4.30547 60.5385 4.02822 60.3305C3.17153 59.695 2.22685 59.1751 1.31935 58.6069C0.940793 59.5357 0.196805 60.4828 0.251038 61.389C0.369968 63.2666 1.07452 65.1063 1.23656 66.9886C1.70711 72.4824 1.93325 78.0048 2.48324 83.4898C2.59381 84.6032 3.46645 85.9864 4.40188 86.5926C5.72039 87.4505 7.3641 87.199 8.42226 85.7617C10.2928 83.2275 12.0122 80.5835 13.9628 78.1163C14.9715 76.8426 16.3737 75.8858 17.5395 74.7196C18.5908 73.6721 20.2247 72.6153 20.3708 71.4135C20.503 70.3412 19.1932 68.5053 18.073 67.9954C16.3042 67.1873 14.5405 68.0988 13.4257 69.8474C13.3134 70.0274 13.0545 70.1098 12.8606 70.2372C12.6928 70.1752 12.531 70.1109 12.3632 70.0489L12.3571 70.0511Z" fill="#FCFCFC"/>
</svg>
