<svg width="152" height="149" viewBox="0 0 152 149" fill="none" xmlns="http://www.w3.org/2000/svg">
<path d="M151.529 102.477C150.79 90.7833 149.626 65.1442 150.525 51.8081C150.844 47.066 150.756 42.2255 150.671 37.5406L150.653 36.5279C150.63 29.2181 149.422 21.9605 147.078 15.0367C144.66 8.13796 139.969 3.94459 133.134 2.57087C128.853 1.6801 124.507 1.12973 120.139 0.924818C111.977 0.592055 103.675 0.406975 95.6449 0.227138C92.3864 0.154941 89.1278 0.0791981 85.8693 0L85.5458 0.0931788L82.7393 0.101752C80.6622 0.101752 78.5838 0.101752 76.5041 0.101752L73.08 0.0958228C59.5798 0.0728509 45.6162 0.0407346 31.9932 2.1758C27.2525 2.91878 21.7163 3.95579 16.5929 6.01472C6.37506 10.1214 0.861168 17.6922 0.20483 28.5166C-0.221133 35.5394 0.101124 42.618 0.413541 49.4623C0.473924 50.7828 0.532113 52.1034 0.588121 53.4239C0.773208 57.843 0.966853 64.0914 1.17163 70.706C1.48536 80.8221 1.84106 92.2883 2.23289 99.1648C2.62669 106.103 3.1938 115.23 4.05032 124.303C5.28817 137.413 15.8401 146.902 29.7131 147.379C40.0609 147.735 50.5846 147.884 60.7671 148.028H60.8668C63.7744 148.069 66.7306 148.044 69.5876 148.02C74.2897 147.979 79.1518 147.939 83.9142 148.191C86.8021 148.344 89.7372 148.421 92.7748 148.421C102.195 148.348 111.604 147.755 120.959 146.643C130.563 145.582 137.786 142.762 143.69 137.771C148.526 133.682 150.883 128.946 150.895 123.29C150.899 121.436 150.937 119.557 151.006 117.705C151.067 116.073 151.179 114.408 151.287 112.799C151.59 109.367 151.671 105.919 151.529 102.477V102.477ZM134.098 136.584L133.949 136.666C129.723 138.985 125.065 139.788 120.655 140.412C106.119 142.47 91.676 142.363 78.1305 142.079C70.7704 141.925 63.2861 141.824 56.0487 141.726C49.7078 141.641 43.1516 141.553 36.7044 141.429C33.7082 141.393 30.7187 141.137 27.7599 140.664C17.0215 138.875 11.0823 131.896 10.5855 120.483C10.2232 112.181 9.88843 100.57 9.56486 89.3421C9.26491 78.947 8.95512 68.1981 8.63155 60.4382C8.52916 57.9769 8.38804 55.477 8.25218 53.0591C8.03887 49.2661 7.81832 45.3431 7.74022 41.4852C7.64767 36.9105 7.90102 32.236 8.16749 27.8405C8.56458 21.3139 12.3516 16.6828 19.425 14.0719C23.7022 12.5701 28.1232 11.5144 32.6174 10.9215C44.6206 9.13098 56.8685 8.82843 68.9083 8.82843C72.0069 8.82843 75.0917 8.84808 78.1548 8.86777L80.1317 8.88091C80.9068 8.88616 81.6813 8.88419 82.4551 8.88091H83.882L83.8879 8.62365C87.2015 8.70853 90.5163 8.79119 93.8321 8.8717C103.425 9.10798 113.344 9.3522 123.098 9.67249C125.627 9.8254 128.141 10.1743 130.616 10.716L131.042 10.7981C135.27 11.606 138.097 14.215 139.447 18.5514C141.45 25.1822 142.453 32.0748 142.421 39.0015C142.442 42.1553 142.398 45.3681 142.355 48.4686C142.297 52.6108 142.238 56.8927 142.334 61.1044L142.377 62.9474C142.578 71.7594 142.998 90.0955 143.5 97.8141C143.996 105.428 144.297 115.47 142.217 125.603L142.196 125.678C142.159 125.781 142.143 125.891 142.148 126.001C142.645 131.895 138.494 134.172 134.098 136.584Z" fill="black"/>
<path d="M103.706 89.1598C102.654 89.7329 101.664 90.4129 100.752 91.1892C100.538 91.3592 100.324 91.5286 100.11 91.6946C96.9677 94.1309 93.8284 96.5695 90.692 99.0102C87.0349 101.854 83.3763 104.695 79.7161 107.533C79.3906 107.766 79.0461 107.973 78.6863 108.149L78.4303 108.285C78.5073 106.717 78.5855 105.174 78.6647 103.656C78.8563 99.9008 79.0374 96.354 79.1753 92.7572C79.4673 85.107 79.7509 73.9309 80.0285 63.1223C80.2635 53.843 80.488 45.0782 80.7085 38.6409C80.741 37.3775 80.6518 36.1138 80.442 34.8676C80.1388 32.9642 79.1609 32 77.5325 32C75.7138 32 74.6117 33.0797 74.4306 35.0343C74.3807 35.5729 74.3286 36.1127 74.2744 36.6535C74.0571 38.8713 73.8334 41.1638 73.8038 43.4289C73.6863 52.466 73.5945 65.2573 73.5065 77.6273C73.4409 87.2099 73.3752 96.2594 73.2997 103.195C73.2811 103.7 73.2305 104.202 73.1481 104.701C73.1324 104.811 73.1166 104.924 73.1002 105.04L72.6197 104.597C72.0894 104.109 71.6491 103.703 71.2264 103.28C65.123 97.2873 58.1263 92.2782 50.4861 88.4319L50.2524 88.3093C49.5905 87.9287 48.8854 87.6288 48.1522 87.4159C47.7169 87.3449 47.2711 87.375 46.8493 87.5039C46.68 87.5406 46.5106 87.5787 46.3452 87.6017L46 87.6483L46.0656 87.9902C46.1005 88.1899 46.1251 88.3912 46.1392 88.5934C46.1276 89.1094 46.2769 89.6161 46.5664 90.0433C47.0128 90.5168 47.5078 90.9421 48.0432 91.312C48.4468 91.5987 48.8311 91.9116 49.1938 92.2486C52.0112 95.0052 54.8229 97.7662 57.629 100.532C61.2529 104.097 64.8827 107.656 68.5183 111.209C70.0401 112.791 71.7157 114.217 73.5203 115.467C74.5086 116.172 75.6811 116.572 76.8939 116.62C78.3267 116.62 79.7161 115.94 81.2185 114.561C83.7421 112.239 86.4764 109.807 89.5769 107.126C91.8334 105.175 94.0985 103.233 96.372 101.301C98.8346 99.2005 101.292 97.0921 103.745 94.9757C104.73 94.1671 105.592 93.2193 106.304 92.162C106.701 91.5279 106.752 90.1601 106.26 89.6298C105.911 89.338 105.492 89.1413 105.045 89.059C104.597 88.9767 104.136 89.0114 103.706 89.1598Z" fill="black"/>
</svg>
