<svg width="271" height="261" viewBox="0 0 271 261" fill="none" xmlns="http://www.w3.org/2000/svg">
<path d="M221.431 187.425C221.494 187.404 221.556 187.382 221.619 187.361C233.547 183.277 242.914 174.576 246.672 164.089C250.483 153.46 247.933 141.323 240.668 133.902C249.404 132.45 257.556 127.281 263.415 119.373C270.021 110.461 272.447 99.7719 270.068 90.0561C267.69 80.3402 260.606 71.9833 250.63 67.1262C241.952 62.9016 232.535 62.0332 224.225 64.5899C228.267 55.5493 228.834 44.7027 225.729 34.2318C221.939 21.4495 213.434 10.9205 202.403 5.34873C181.694 -5.11822 153.966 1.24551 138.198 19.7422C134.575 12.7547 128.094 7.38774 119.712 4.48155C108.821 0.707202 96.0805 1.70926 86.4536 7.10362C70.7327 15.9051 60.1292 34.3143 57.9214 56.5472C31.2427 54.2347 4.28417 75.6452 0.850282 102.274C-0.113876 109.775 1.25382 117.824 4.60381 124.368C7.80191 130.6 12.5396 134.911 18.151 136.773C8.48903 145.403 6.36346 162.145 13.9277 174.393C20.9878 185.835 34.7929 193.177 50.8567 194.033C64.7757 194.781 78.3474 190.949 90.9881 186.54C93.6457 194.713 102.002 199.619 109.487 200.897C117.753 202.308 125.947 200.465 134.314 198.284C151.718 193.745 168.084 187.276 171.234 171.204C177.27 177.876 184.833 183.165 192.823 186.265C202.575 190.043 212.455 190.446 221.417 187.429L221.431 187.425ZM236.76 131.412C236.321 131.56 235.967 131.912 235.826 132.37C235.644 132.958 235.851 133.594 236.342 133.971C244.537 140.218 247.722 152.468 243.918 163.094C240.46 172.744 231.768 180.776 220.682 184.577C220.633 184.593 220.578 184.612 220.529 184.628C206.887 189.22 186.457 185.502 171.389 166.828C171.013 166.357 170.383 166.167 169.807 166.345C169.218 166.505 168.822 167.033 168.777 167.637C167.497 184.334 151.112 190.864 133.595 195.434C125.549 197.53 117.696 199.305 110.007 197.995C100.302 196.34 94.694 189.927 93.4469 184.31C93.3551 183.899 93.0893 183.547 92.7263 183.344C92.3563 183.143 91.9403 183.104 91.5225 183.245C78.7404 187.764 64.9882 191.842 51.039 191.096C36.1649 190.298 22.9116 183.304 16.4536 172.846C9.08304 160.896 11.8038 144.287 22.2812 137.297C22.7821 136.966 23.0267 136.357 22.9042 135.762C22.7817 135.168 22.3065 134.724 21.7068 134.623C8.79446 132.467 2.01403 116.351 3.78098 102.644C7.08531 77.0351 33.447 56.523 59.0939 59.6168C59.489 59.662 59.893 59.5493 60.1967 59.2998C60.5073 59.048 60.7014 58.6805 60.7305 58.2833C62.5233 36.3605 72.6861 18.1848 87.9059 9.66821C96.8229 4.67549 108.646 3.75746 118.765 7.26468C127.198 10.1847 133.505 15.7961 136.515 23.0595C136.717 23.5421 137.157 23.8822 137.677 23.9549C138.196 24.0208 138.715 23.8148 139.033 23.3981C153.661 4.55634 180.919 -2.21477 201.093 7.97504C211.405 13.1843 219.364 23.0599 222.927 35.0741C226.213 46.1507 225.123 57.6306 219.932 66.5771C219.613 67.1262 219.684 67.8228 220.116 68.2977C220.547 68.7726 221.223 68.9168 221.808 68.6503C230.12 64.8997 240.169 65.2993 249.357 69.7709C258.544 74.2426 265.057 81.8927 267.226 90.7568C269.396 99.6208 267.148 109.413 261.066 117.621C254.983 125.83 246.263 130.833 237.148 131.344C237.011 131.351 236.888 131.377 236.762 131.419L236.76 131.412Z" fill="#FCFCFC"/>
<path d="M66.8816 260.076C70.3425 258.911 73.3944 256.071 74.8406 252.306C75.4103 250.82 75.6297 249.491 75.5147 248.251C75.4334 247.41 75.1893 246.57 74.7946 245.812C78.4823 243.501 80.943 239.41 81.1864 235.043C81.2904 233.187 80.9398 231.638 80.1466 230.456C78.4854 227.985 75.5106 227.622 73.104 227.774C73.6136 226.385 73.809 224.847 73.6606 223.277C73.3926 220.5 72.0684 218.017 70.0195 216.466C66.867 214.079 62.6892 213.966 59.8225 214.086C54.2958 214.319 50.5504 215.858 48.3792 218.782C47.2219 220.342 46.6485 222.185 46.1395 223.806C44.9191 227.735 43.8433 231.84 44.7415 235.637C41.3845 235.752 38.2561 237.836 36.36 240.264C34.1931 243.039 33.3702 246.214 34.1029 248.99C35.3896 253.85 41.0626 256.079 45.5912 255.369C48.6311 254.888 51.3035 253.454 53.8728 251.667C53.9503 252.819 54.2696 253.998 54.8374 255.132C56.2626 258.008 58.9682 260.081 61.8969 260.537C63.5658 260.797 65.2661 260.62 66.8747 260.078L66.8816 260.076ZM71.4198 245.343C71.3675 245.74 71.4685 246.156 71.7412 246.483C72.2145 247.06 72.5209 247.786 72.5833 248.524C72.6599 249.304 72.4952 250.197 72.0892 251.248C70.6799 254.915 66.6559 258.3 62.3466 257.634C60.343 257.325 58.4779 255.86 57.4685 253.828C56.6204 252.114 56.5735 250.317 57.3386 248.904C57.6668 248.29 57.5275 247.531 56.9965 247.082C56.4655 246.633 55.6942 246.621 55.1401 247.048C51.7832 249.673 48.711 251.901 45.1323 252.462C41.8578 252.983 37.7852 251.409 36.9492 248.234C36.4585 246.384 37.1095 244.08 38.6791 242.064C40.3853 239.878 43.5628 237.917 46.5089 238.77C47.067 238.931 47.6728 238.75 48.048 238.299C48.4231 237.847 48.4935 237.227 48.2318 236.702C46.5076 233.261 47.5854 229.046 48.9509 224.673C49.4092 223.201 49.8766 221.688 50.7423 220.529C52.3464 218.361 55.3635 217.214 59.9493 217.019C62.3653 216.919 65.8551 216.992 68.2486 218.806C69.6432 219.863 70.552 221.596 70.7387 223.556C70.9254 225.515 70.3636 227.394 69.1962 228.694C68.7747 229.169 68.6976 229.861 69.0221 230.411C69.3397 230.962 69.977 231.244 70.5993 231.112C74.3981 230.306 76.7293 230.622 77.7092 232.082C78.1432 232.727 78.327 233.665 78.2583 234.866C78.0481 238.618 75.6349 242.227 72.2474 243.863C71.6743 244.142 71.3624 244.735 71.4244 245.334L71.4198 245.343Z" fill="#FCFCFC"/>
<path d="M109.111 132.419C108.387 129.773 107.727 121.562 107.621 116.39C107.456 115.154 107.681 114.086 107.569 113.804C107.458 113.522 107.521 107.957 107.581 105.653C107.696 102.674 107.753 101.999 107.195 102.22C106.914 102.331 106.634 102.442 106.185 102.947C106.016 103.34 105.847 103.733 105.567 103.844C105.287 103.955 104.231 98.8334 104.343 97.487C104.288 96.53 104.292 94.9006 104.515 93.8336L104.294 91.6403L103.399 91.0165C103.007 90.8456 102.503 90.3928 102.391 90.1108C102.168 89.5468 101.326 89.8801 101.269 90.5551C100.932 91.3412 100.205 91.9554 99.8702 91.1094C99.7585 90.8275 99.6468 90.5455 99.6468 90.5455C99.9272 90.4344 99.8725 89.4774 99.4267 88.3522C99.2065 86.1589 98.5402 81.2093 98.9892 80.7052C99.0462 80.0302 98.8227 79.4663 97.6475 78.9562C96.975 78.8964 96.0802 78.2753 95.5791 77.8214C94.9635 77.0865 94.4028 77.3087 94.3484 77.9827C94.0681 78.0938 93.7307 78.8798 93.396 79.6649L92.7783 80.562L92.2208 79.1548C90.9394 75.1014 89.9927 70.263 90.2753 68.5199C90.5009 67.4518 89.9981 67.0016 89.0453 67.0528C88.4845 67.275 88.0924 67.1041 87.9807 66.8222C87.869 66.5402 87.4769 66.3693 87.1965 66.4804C86.6927 66.0275 86.3554 66.8136 86.6905 67.6595C86.6905 67.6595 86.1291 69.51 85.4545 71.0822C84.387 74.1118 84.387 74.1118 84.9445 75.519C85.2796 76.365 85.5567 77.8833 85.6115 78.8403C85.7779 80.0792 85.8886 80.3586 85.4975 80.1903C85.2171 80.3014 84.9938 79.7374 84.882 79.4554C84.6586 78.8915 84.2698 77.0913 83.6006 75.4021C82.5995 71.2376 82.1534 68.4813 82.6024 67.9772C83.0515 67.4731 82.7164 66.6272 81.7646 66.6811C81.3725 66.5102 80.5882 66.1684 79.696 65.5463C78.4091 64.7542 78.4091 64.7542 78.3537 65.4256C78.185 65.8186 77.512 67.3871 76.7256 68.6773C75.323 70.8611 75.4348 71.143 75.8816 72.2709C76.2167 73.1168 76.7709 76.1534 77.3288 79.1916C78.2186 84.7051 78.3303 84.9871 77.7115 85.8816L76.816 86.8888L76.7612 85.9319C76.5378 85.3679 75.9256 83.0037 75.5937 80.5284C74.8698 77.8822 74.0341 74.9541 73.9804 73.9997C74.2061 72.9317 73.9289 71.4134 73.7055 70.8494C73.5391 69.6105 73.2587 69.7215 72.8677 69.5533C72.5873 69.6643 70.7412 69.0908 69.0622 68.1279L66.2095 66.6513L65.7035 67.8304C65.6466 68.5054 65.1421 69.6809 64.693 70.185C64.3557 70.9711 64.187 71.3642 64.2977 71.6435C64.5211 72.2075 63.9604 72.4296 62.8984 72.1978C61.4444 71.7952 59.7653 70.8323 59.5419 70.2684C59.2068 69.4225 58.3657 69.7557 57.4132 71.4379C57.0759 72.224 56.7411 73.0091 56.4607 73.1202C55.8999 73.3424 56.011 75.2527 56.9036 77.5058L57.7962 79.7589C57.6276 80.152 56.2251 82.3357 55.9447 82.4468C55.9447 82.4468 55.7213 81.8828 55.6096 81.6008C55.5549 80.6438 55.1627 80.473 54.602 80.6951C53.5374 80.4644 51.9727 79.7824 50.8534 78.5947C49.4548 77.5208 48.7849 77.4599 48.7817 79.0893C48.8364 80.0463 46.8155 84.7555 46.5351 84.8666C45.9743 85.0887 46.0291 86.0457 46.4211 86.2166C47.0936 86.2764 48.7672 90.5007 48.4868 90.6118C47.9261 90.8339 46.7524 90.3202 45.1851 89.6393L43.2283 88.7864L43.0027 89.8545C42.834 90.2475 42.2189 91.1437 41.7688 91.6452C40.4242 93.1565 40.536 93.4385 42.2665 96.9877C45.0013 103.072 48.518 111.13 49.2409 113.774C49.8531 116.138 50.0766 116.702 49.5158 116.924C49.2354 117.035 49.1785 117.71 49.2322 118.665C49.2869 119.622 49.3407 120.576 50.7371 123.282L53.5266 130.323C54.1389 132.688 55.8671 137.869 57.5406 142.093C59.661 147.445 60.2732 149.81 60.5503 151.328C60.9939 154.085 60.994 154.085 63.6232 154.998C68.1012 156.483 70.6757 156.439 81.0881 154.92C83.9441 154.768 86.1265 154.552 86.1265 154.552C87.1911 154.783 93.4051 153.297 97.0449 151.855C99.397 151.249 101.357 150.473 101.357 150.473C101.749 150.644 107.237 148.143 107.967 147.528C109.535 146.581 110.321 145.29 110.267 144.336C110.324 143.661 110.381 142.986 110.381 142.986C110.438 142.311 109.999 136.296 109.552 135.168C109.328 134.604 109.386 133.932 109.386 133.932C109.278 133.658 109.223 132.701 109.111 132.419ZM106.182 104.579C106.463 104.467 106.463 104.467 106.575 104.749C106.518 105.424 106.518 105.425 106.125 105.254C106.014 104.972 105.902 104.69 106.182 104.579ZM103.783 99.3401C103.726 100.015 104.338 102.379 104.503 103.616C104.615 103.898 104.558 104.573 104.278 104.684C103.997 104.795 103.552 103.67 103.442 101.756C103.387 100.799 103.053 99.9553 102.942 99.6733C102.718 99.1094 102.999 98.9983 103.279 98.8872C103.559 98.7762 103.84 98.6651 103.783 99.3401ZM102.45 92.7003C102.338 92.4184 102.618 92.3073 102.899 92.1962C102.899 92.1962 102.899 92.1962 103.011 92.4782C102.842 92.8713 102.673 93.2643 102.673 93.2643C102.673 93.2643 102.561 92.9797 102.45 92.7003ZM102.839 94.5006C103.119 94.3896 103.288 93.9965 103.176 93.7145L103.288 93.9965C103.399 94.2784 103.511 94.5604 103.342 94.9535C102.782 95.1756 102.782 95.1756 102.67 94.8936C102.558 94.6117 102.558 94.6117 102.839 94.5006ZM103.339 96.5828C103.451 96.8648 103.282 97.2579 103.282 97.2579C103.114 97.6509 102.721 97.48 102.89 97.087C102.778 96.805 102.947 96.4119 102.947 96.4119C103.116 96.0189 103.508 96.1898 103.339 96.5828ZM101.27 93.817C101.494 94.381 101.659 95.6173 101.714 96.5743C102.049 97.4202 102.269 99.6135 102.435 100.85C102.6 102.086 102.598 103.718 102.821 104.282C102.933 104.564 102.876 105.239 103.098 105.8C103.153 106.757 102.481 106.698 102.314 105.459C102.091 104.895 101.702 103.094 101.313 101.294C100.481 96.7366 100.203 93.5874 100.652 93.0832C101.105 92.5807 101.497 92.7516 101.27 93.817ZM101.03 106.297C100.75 106.408 100.469 106.519 100.412 107.194C100.075 107.98 99.517 108.201 99.5713 107.527L99.7399 107.134C100.02 107.023 100.189 106.63 100.469 106.519C100.526 105.844 101.365 105.512 101.31 106.186L101.03 106.297ZM101.756 107.311C101.756 107.311 101.588 107.704 101.307 107.815C101.027 107.926 100.915 107.644 100.915 107.644C100.803 107.362 101.084 107.251 101.364 107.14C101.364 107.14 101.645 107.029 101.756 107.311ZM99.5761 105.894C99.8565 105.783 99.8566 105.783 99.9683 106.065C99.9683 106.065 99.7996 106.458 99.5192 106.569C99.2388 106.68 99.1271 106.398 99.5761 105.894ZM100.583 105.169C100.303 105.28 99.9109 105.109 100.191 104.998C100.191 104.998 100.36 104.605 100.64 104.494C100.697 103.819 100.978 103.708 101.201 104.272C101.313 104.553 101.144 104.947 100.583 105.169ZM100.026 103.761C99.4081 104.659 99.5198 104.941 99.2964 104.377C99.073 103.813 99.2416 103.42 99.58 102.636C100.478 101.628 100.756 101.518 100.702 102.192C100.812 102.471 100.475 103.257 100.026 103.761ZM100.143 100.782C99.8627 100.893 99.5822 101.004 99.4136 101.397C99.3566 102.072 98.7959 102.294 98.9646 101.901C98.8529 101.619 99.0215 101.226 99.4706 100.722C99.9197 100.218 100.2 100.107 100.312 100.389C100.423 100.671 100.143 100.782 100.143 100.782ZM98.5747 100.098C98.8551 99.9874 99.0238 99.5943 99.1355 99.8763C99.1355 99.8763 99.2471 100.158 98.9667 100.269C98.4086 100.491 98.4086 100.49 98.5747 100.098ZM97.5798 91.0442C97.2994 91.1553 97.1307 91.5484 97.019 91.2664C96.7386 91.3775 98.3098 88.8007 98.7019 88.9716C98.7019 88.9716 98.9254 89.5356 98.8674 90.2079C99.0908 90.7719 99.0337 91.4469 99.1444 91.7263C99.2561 92.0082 99.0875 92.4013 98.8071 92.5123C98.8071 92.5123 98.2464 92.7345 98.1894 93.4095L97.852 94.1956L97.5169 93.3497C97.1818 92.5038 97.1817 92.5038 98.0809 91.4982C98.5299 90.9941 98.9764 90.491 98.8647 90.209C98.7582 89.925 97.6368 90.3692 97.5798 91.0442ZM99.1448 93.3572C99.1448 93.3572 99.1448 93.3572 99.2565 93.6392L99.5917 94.4851C99.7034 94.7671 99.5348 95.1601 99.2544 95.2712C98.974 95.3823 98.4132 95.6044 98.2472 95.9964C98.1902 96.6714 98.1902 96.6715 97.9667 96.1075C97.7423 95.5409 98.5841 93.5794 99.1448 93.3572ZM99.3107 96.2245C99.5911 96.1134 99.591 96.1134 99.7028 96.3954C99.7028 96.3954 99.3654 97.1815 98.919 97.6846C98.5816 98.4707 98.5816 98.4707 98.4699 98.1887C98.2428 97.6232 98.7499 96.4466 99.3107 96.2245ZM99.9229 98.5887C100.035 98.8707 99.866 99.2637 99.5856 99.3748C99.3052 99.4859 99.1935 99.2039 99.3622 98.8109C99.6995 98.0248 100.092 98.1957 99.9229 98.5887ZM98.3147 87.1677C98.5381 87.7316 98.2008 88.5177 97.7533 89.0182L96.8578 90.0254L96.6913 88.7865C96.4142 87.2682 96.4143 87.2681 97.4215 86.5429C98.2584 86.2143 98.2584 86.2143 98.3147 87.1677ZM95.3028 79.565C95.5831 79.4539 96.3673 79.7957 96.5907 80.3597C96.5907 80.3597 96.7025 80.6416 96.4221 80.7527C95.8603 80.9722 95.2447 80.2374 95.3028 79.565ZM96.1374 82.4905C95.8023 81.6446 96.0827 81.5335 96.6434 81.3113C96.9238 81.2003 97.4845 80.9781 97.3728 80.6962C97.3728 80.6962 97.4845 80.9781 97.708 81.5421C97.9314 82.106 97.651 82.2171 96.9242 82.8313C96.3608 83.0545 96.0804 83.1655 96.1374 82.4905ZM97.2541 83.6793C97.8148 83.4571 97.8149 83.4571 98.0383 84.021C98.2617 84.585 98.0929 84.978 98.0929 84.978C98.2046 85.26 97.6439 85.4822 97.0857 85.7033C96.2446 86.0365 96.2447 86.0365 96.3016 85.3615C96.2469 84.4045 96.4155 84.0114 97.2541 83.6793ZM93.5082 81.5778L94.1802 80.0066L94.7377 81.4139C94.9611 81.9778 95.1813 84.1711 95.5701 85.9714C95.6786 87.8827 96.013 90.357 96.0677 91.314C96.4028 92.1599 96.6799 93.6782 96.7347 94.6352C96.6777 95.3103 96.8432 96.5465 97.1783 97.3925C97.7905 99.7567 97.6218 100.15 98.2334 104.142C98.3418 106.054 98.5646 108.246 98.6763 108.528C98.788 108.81 98.339 109.314 97.5005 109.646C95.7638 110.987 95.7638 110.987 95.5973 109.748C95.3739 109.184 95.2086 107.947 94.9852 107.383C94.7618 106.819 94.4847 105.301 94.3182 104.062C93.9864 101.587 93.4288 100.18 91.9816 93.259C91.2576 90.6128 90.9257 88.1376 90.814 87.8556C90.7023 87.5736 90.9291 86.5082 91.5442 85.612C92.8335 83.15 92.8335 83.15 93.5082 81.5778ZM93.9161 110.417C93.1323 111.706 92.5717 111.928 93.3555 110.639C93.5241 110.246 93.9731 109.742 94.2535 109.631C94.2535 109.631 94.3652 109.913 93.9161 110.417ZM94.812 111.04C94.812 111.04 94.6433 111.434 94.363 111.545L94.2512 111.263C94.1395 110.981 94.42 110.87 94.42 110.87C94.42 110.87 94.7003 110.759 94.812 111.04ZM87.4206 112.011C86.4671 113.691 86.4671 113.691 86.3564 113.412C86.2447 113.13 86.5819 112.344 87.0284 111.841C88.2623 110.05 88.374 110.332 87.4206 112.011ZM88.4255 112.918C88.5372 113.2 88.3685 113.593 87.8078 113.815L87.247 114.038L87.753 112.858C87.9786 111.79 88.3707 111.961 88.4255 112.918ZM87.5898 109.99C87.3094 110.101 87.029 110.212 86.8604 110.605C86.2426 111.502 86.2426 111.502 86.0192 110.938C85.7958 110.375 85.9645 109.981 86.5807 109.088C87.0297 108.584 87.4788 108.08 87.4788 108.08C87.7618 107.968 87.7015 110.272 87.5898 109.99ZM83.7423 99.4592C84.1913 98.9551 84.9181 98.3409 85.1984 98.2299C85.1984 98.2299 85.1985 98.2299 85.0298 98.6229C84.246 99.9121 83.3469 100.918 83.1246 100.356C83.0129 100.074 83.1815 99.6813 83.7423 99.4592ZM83.13 97.095C83.9138 95.8058 84.755 95.4726 84.698 96.1476L85.0331 96.9935C85.1448 97.2755 84.9762 97.6685 84.4154 97.8907C84.135 98.0017 83.686 98.5059 83.4082 98.6159C82.4 99.3385 82.2319 98.1033 83.13 97.095ZM84.4684 100.473L85.6442 99.3551L85.699 100.312L86.0342 101.158C86.0342 101.158 85.5851 101.662 85.3047 101.773C84.744 101.995 84.2975 102.498 84.4092 102.78C84.2406 103.173 83.6798 103.396 83.7367 102.721C83.4042 101.874 83.5703 101.482 84.4684 100.473ZM85.6415 102.615C86.4826 102.282 86.1453 103.068 85.5265 103.963C84.6284 104.971 84.3505 105.081 84.2388 104.799C84.0164 104.238 85.0807 102.838 85.6415 102.615ZM86.3117 104.307C87.1529 103.974 86.8154 104.76 85.9163 105.766C84.8521 107.166 84.5718 107.277 84.6287 106.602C84.6857 105.927 86.0314 104.418 86.3117 104.307ZM87.0346 106.951C86.8659 107.344 86.4169 107.848 85.9704 108.351C85.5214 108.855 85.5213 108.855 85.4096 108.573C85.2979 108.291 85.3549 107.616 86.0828 107.005C87.1495 105.603 87.5416 105.774 87.0346 106.951ZM89.212 111.628C88.8768 110.782 88.4879 108.982 88.3225 107.745C88.1571 106.509 87.3784 102.906 86.5402 99.9789C84.5354 91.651 84.369 90.412 84.0919 88.8937C84.1489 88.2186 84.0952 87.2643 83.9835 86.9823C83.8718 86.7003 84.0984 85.6349 84.324 84.5669C85.1658 82.6053 85.1658 82.6053 85.9461 86.2048C86.1125 87.4437 86.7247 89.808 87.2822 91.2152C88.9529 98.6998 90.1226 102.471 90.5662 105.229C91.1237 106.636 91.5136 108.439 91.3439 108.829C91.5673 109.393 91.621 110.347 91.8444 110.911C91.8991 111.868 91.7305 112.261 91.7305 112.261L90.6116 112.705L89.381 112.866L89.212 111.628ZM90.6836 98.9898C90.6836 98.9898 91.2444 98.7676 91.4131 98.3746C92.0308 97.4774 92.0308 97.4774 92.2542 98.0414C92.3659 98.3233 92.0286 99.1094 91.5821 99.6125C90.7984 100.902 90.5181 101.013 90.4634 100.056C89.7942 98.3666 89.7393 97.4096 90.4661 96.7954C90.9151 96.2913 91.0838 95.8983 91.3616 95.7882C91.3616 95.7882 91.6421 95.6771 91.7538 95.9591C91.8655 96.2411 91.5281 97.0272 91.0817 97.5303C90.1799 98.5369 90.2372 99.4929 90.6836 98.9898ZM92.5291 101.192C92.2487 101.303 91.7997 101.807 91.6311 102.2C91.2937 102.986 91.2937 102.986 91.0703 102.422C90.9585 102.14 90.7352 101.576 91.0156 101.465C91.296 101.354 91.745 100.85 91.9111 100.458C92.2484 99.6717 92.5288 99.5607 92.7522 100.125C92.8665 100.406 92.8095 101.081 92.5291 101.192ZM92.8611 103.667C92.6924 104.06 92.2433 104.564 92.0773 104.956C91.7969 105.067 91.7968 105.067 91.5734 104.503C91.35 103.939 91.8571 102.763 92.6956 102.431C93.2553 102.206 93.3671 102.488 92.8611 103.667ZM90.5775 95.4464C89.682 96.4536 89.682 96.4536 89.3469 95.6077C89.1235 95.0438 89.4607 94.2577 90.3573 93.2531C90.918 93.031 91.1984 92.9199 91.0298 93.3129L91.3649 94.1588C91.3623 94.1599 90.9159 94.663 90.5775 95.4464ZM89.5732 92.9113L88.9555 93.8085L88.5097 92.6832C88.5097 92.6832 88.9587 92.1791 89.4052 91.676C90.1889 90.3868 90.4693 90.2758 90.5241 91.2328C90.6384 91.5137 90.301 92.2998 89.5732 92.9113ZM89.6307 90.608C88.4548 91.7263 88.4549 91.7262 88.2315 91.1623C88.1198 90.8803 88.1768 90.2053 89.242 88.8077L89.8597 87.9105L89.9143 88.8675C90.1378 89.4315 90.2495 89.7134 89.6307 90.608ZM93.3586 109.01C93.0213 109.796 92.7409 109.907 92.7409 109.907C92.5175 109.343 92.5745 108.668 92.8549 108.557C92.8549 108.557 93.3039 108.053 93.4726 107.659C93.5296 106.984 93.5295 106.984 93.7529 107.548C93.862 107.831 93.8077 108.505 93.3586 109.01ZM92.8582 106.927C92.4091 107.431 92.4091 107.431 92.1857 106.867C92.074 106.585 92.1309 105.91 92.581 105.409C93.3648 104.12 93.4765 104.402 93.6456 105.64C93.7536 105.92 93.3046 106.424 92.8582 106.927ZM86.4612 76.8756L85.6255 73.9474L86.5242 71.3108C87.48 67.9992 87.5917 68.2812 87.5347 68.9562C87.6464 69.2381 87.9235 70.7565 88.482 72.1663C89.7065 76.8948 90.1527 79.651 90.765 82.0152C91.0421 83.5335 90.8164 84.6016 90.5387 84.7116C90.2013 85.4977 90.0897 85.2157 90.0349 84.2587C89.8115 83.6948 89.8684 83.0198 89.9264 82.3474C89.8716 81.3904 89.761 81.111 88.4161 80.9914C87.7436 80.9316 87.3515 80.7607 87.2398 80.4787C87.1281 80.1968 86.85 78.6758 86.4612 76.8756ZM88.6932 82.5097C88.8049 82.7917 88.4676 83.5777 87.7408 84.1919C87.2917 84.696 86.7336 84.9172 86.6219 84.6352C86.9023 84.5241 87.2396 83.738 87.4057 83.346C87.9091 82.1679 88.4698 81.9458 88.6932 82.5097ZM86.4524 81.7663C87.1249 81.8261 87.2365 82.1081 87.0679 82.5012C86.7305 83.2873 86.1724 83.5084 86.3384 83.1164C86.0059 82.2694 86.172 81.8774 86.4524 81.7663ZM81.6545 71.2857C81.3741 71.3968 81.2625 71.1148 81.2625 71.1148C81.1508 70.8329 81.039 70.5509 81.3194 70.4398C81.3194 70.4398 81.5998 70.3287 81.7115 70.6107C81.8206 70.8937 81.6545 71.2857 81.6545 71.2857ZM79.981 67.0614C79.981 67.0614 80.2614 66.9503 80.7652 67.4032C80.8769 67.6852 80.9886 67.9671 80.7083 68.0782C80.4279 68.1893 80.3161 67.9073 80.2044 67.6254C79.981 67.0614 79.981 67.0614 79.981 67.0614ZM80.9279 68.6406C81.2083 68.5295 81.4888 68.4184 81.3201 68.8115C81.5435 69.3754 81.0945 69.8795 80.7024 69.7086C80.3129 69.5367 80.6502 68.7506 80.9279 68.6406ZM81.7093 72.2427C81.9897 72.1316 82.1013 72.4136 82.3247 72.9776C82.7136 74.7778 82.8254 75.0598 82.4333 74.8889C82.3216 74.6069 81.7093 72.2427 81.7093 72.2427ZM87.065 85.7615C87.514 85.2574 88.8596 83.7487 88.9702 84.028C89.3623 84.1989 89.025 84.985 88.4063 85.8795C87.8455 86.1017 87.3991 86.6048 87.1187 86.7159C86.9501 87.1089 87.007 86.4339 87.065 85.7615ZM88.6297 86.4435C89.3591 85.8283 89.3592 85.8283 89.4139 86.7853C89.5256 87.0672 89.1883 87.8533 88.7408 88.3538C87.957 89.643 87.957 89.643 87.7336 89.079C87.3969 88.2368 87.9029 87.0577 88.6297 86.4435ZM78.615 81.612C78.4496 80.3757 77.8944 77.3364 77.3939 75.2542C76.7816 72.89 76.6732 70.9786 76.8393 70.5866C76.7275 70.3047 77.3453 69.4075 77.8498 68.232L78.8022 66.5498L79.7496 69.7599C81.1427 74.0953 82.871 79.2766 83.2055 81.7508C83.763 83.158 83.7059 83.8331 83.1999 85.0122C82.3581 86.9738 82.3581 86.9738 80.3439 85.165C79.2273 83.9762 79.2272 83.9762 78.615 81.612ZM80.512 86.4003C81.0157 86.8531 81.1274 87.1351 80.9588 87.5281C80.5097 88.0323 80.1176 87.8614 79.8942 87.2974C79.4511 86.1711 79.6197 85.7781 80.512 86.4003ZM80.6756 90.8996C80.7325 90.2245 81.1815 89.7204 81.7397 89.4993C82.0201 89.3882 82.1888 88.9952 82.0771 88.7132C81.9654 88.4312 81.4047 88.6534 80.6778 89.2675C80.3975 89.3786 80.3975 89.3786 80.3975 89.3786C80.2858 89.0966 80.4545 88.7036 81.0152 88.4814C81.9107 87.4742 82.3027 87.6451 82.8613 89.055C83.0847 89.6189 83.0846 89.6189 82.1855 90.6245C80.7292 91.8539 80.7293 91.8539 80.6756 90.8996ZM82.6894 91.0774C83.4188 90.4622 83.9199 90.9161 83.1931 91.5303C82.9127 91.6413 82.4637 92.1455 82.0173 92.6485C81.3996 93.5457 81.3996 93.5457 81.2878 93.2637C81.0644 92.6998 81.6822 91.8026 82.6894 91.0774ZM83.5282 92.3762C83.8086 92.2651 84.4778 93.9543 84.3091 94.3474C84.1405 94.7404 83.6915 95.2445 83.245 95.7476C82.3495 96.7548 82.0691 96.8659 82.1261 96.1909C82.1261 96.1909 82.4635 95.4048 82.9099 94.9017C83.9741 93.5014 83.7517 92.9401 82.5748 94.0558C81.957 94.9529 81.9571 94.9529 81.8454 94.671C81.7336 94.389 83.2478 92.4872 83.5282 92.3762ZM78.1599 87.0058C78.4972 86.2198 78.4972 86.2198 78.9977 88.302C79.3328 89.1479 79.4983 90.3842 79.7217 90.9482C81.9498 99.84 83.286 104.85 84.1217 107.779C84.5675 108.904 84.9573 110.707 85.2344 112.225C85.3429 114.136 85.4546 114.418 84.6161 114.751C83.6089 115.476 83.4972 115.194 82.6589 112.267C80.0956 102.529 79.0399 97.4074 78.708 94.9321C78.0388 93.2429 77.9303 91.3317 77.5952 90.4857C77.2074 88.6881 77.0957 88.4061 78.1599 87.0058ZM80.5345 111.81C80.5345 111.81 80.0854 112.314 79.9167 112.707C79.299 113.604 79.299 113.604 79.3559 112.929C79.1325 112.365 79.4699 111.579 79.9174 111.078L80.9816 109.678L81.148 110.917L81.4831 111.763C81.0952 111.587 80.7031 111.416 80.5345 111.81ZM81.2005 115.128C81.0888 114.846 81.3691 114.735 81.6495 114.624C81.9298 114.513 82.2103 114.402 82.322 114.684L82.0416 114.795C81.7612 114.906 81.5926 115.299 81.3122 115.41C81.1435 115.803 80.5828 116.025 80.305 116.135C79.9129 115.964 79.6324 116.075 79.6894 115.4C79.466 114.837 79.6348 114.443 79.6348 114.443C79.6348 114.443 79.8034 114.05 80.2525 113.546C81.1506 112.538 81.5969 112.035 81.8203 112.599C81.932 112.881 81.2026 113.496 80.8679 114.281C80.4189 114.785 79.9724 115.288 80.0841 115.57C80.1932 115.853 81.0344 115.52 81.2005 115.128ZM79.8642 110.118C79.0804 111.407 78.408 111.347 78.4102 109.715C78.5789 109.322 78.5789 109.322 78.971 109.493C78.971 109.493 79.2514 109.382 79.7004 108.878L80.4842 107.589L80.8193 108.434C81.0427 108.998 80.8741 109.391 80.7624 109.109C80.7634 109.112 80.2026 109.334 79.8642 110.118ZM79.5324 107.642C78.4682 109.043 78.4683 109.043 78.1332 108.197C78.1901 107.522 78.9749 106.235 79.816 105.902C80.6546 105.57 80.1512 106.748 79.5324 107.642ZM75.0272 87.2713C75.7566 86.6561 76.0345 86.546 75.8684 86.938C75.6998 87.3311 75.2506 87.8352 74.8042 88.3383C74.2434 88.5605 74.0748 88.9535 74.1865 89.2355C74.4099 89.7994 74.4099 89.7994 75.3054 88.7922C75.9231 87.895 76.4813 87.6739 76.427 88.3479C76.2583 88.7409 75.3047 90.4206 74.9136 90.2523C74.9136 90.2523 74.6333 90.3634 74.745 90.6453C74.1273 91.5425 74.7998 91.6023 75.6979 90.5941C75.8665 90.201 76.4273 89.9789 76.4273 89.9789C76.8194 90.1498 76.1437 91.7193 75.4169 92.3335C74.9678 92.8376 74.7992 93.2306 74.9109 93.5126C75.0226 93.7946 75.5833 93.5724 76.1984 92.6763C76.8162 91.7791 77.0939 91.6691 77.0396 92.3431C77.1513 92.6251 77.263 92.907 77.263 92.907C77.3747 93.189 76.9256 93.6931 76.4792 94.1962C75.415 95.5965 75.415 95.5965 74.6878 94.5797C73.7952 92.3265 72.7394 87.2051 73.1288 87.377C73.4092 87.2659 73.8584 86.7618 74.3048 86.2587C74.7538 85.7546 75.2028 85.2504 75.2028 85.2504C76.044 84.9172 75.595 85.4213 74.5282 86.8226C74.0792 87.3268 73.7444 88.1118 73.7444 88.1118C73.9595 88.6699 74.2397 88.5589 75.0272 87.2713ZM76.3568 95.5404C76.9746 94.6433 77.5328 94.4221 77.8679 95.268C77.6992 95.6611 77.6422 96.3361 76.9154 96.9503C76.4663 97.4544 76.2977 97.8474 76.4094 98.1294C76.2407 98.5225 77.0818 98.1892 77.4166 97.4042L78.0343 96.507L78.0891 97.464C78.1438 98.421 77.9171 99.4864 77.0217 100.494C76.853 100.887 76.6842 101.28 76.9646 101.169C77.0763 101.451 77.5254 100.946 77.9745 100.442C78.5922 99.5452 78.5923 99.5452 78.5353 100.22C78.647 100.502 78.59 101.177 78.141 101.681C77.6919 102.185 77.4116 102.297 77.1338 102.407C77.1338 102.407 76.7987 101.561 76.3529 100.435C75.6289 97.7892 75.3517 96.271 75.4634 96.5529C75.7417 96.4366 76.0221 96.3255 76.3568 95.5404ZM78.1963 102.632C78.5336 101.846 79.0917 101.625 79.2034 101.907C79.3152 102.189 78.8661 102.693 78.4197 103.196L77.6359 104.485L77.3008 103.639C77.0774 103.075 77.0773 103.075 77.3577 102.964C77.7472 103.136 78.0276 103.025 78.1963 102.632ZM78.7548 104.042C79.2038 103.538 79.4842 103.427 79.7076 103.991C79.8193 104.273 79.6507 104.666 78.9239 105.28C78.0284 106.287 78.0284 106.287 77.6932 105.441C77.4698 104.877 77.4698 104.877 77.7501 104.766C78.0305 104.655 78.5861 104.435 78.7548 104.042ZM75.2535 84.5749C74.6927 84.797 74.1347 85.0181 73.6856 85.5223C72.8992 86.8125 72.6214 86.9225 72.6757 86.2486C72.4523 85.6846 73.4059 84.005 74.8647 82.7746C74.753 82.4926 75.2568 82.9455 75.3685 83.2275C75.7026 84.0707 75.5338 84.4638 75.2535 84.5749ZM73.7431 83.2189L72.3987 84.7302L72.0636 83.8843C71.8401 83.3204 71.8401 83.3204 72.1205 83.2093C72.4009 83.0982 72.7382 82.3121 73.1846 81.8091C74.137 80.1268 74.4175 80.0157 74.7526 80.8617C74.9786 81.4246 74.5295 81.9287 73.7431 83.2189ZM73.5799 80.3506C73.0192 80.5727 72.6845 81.3578 72.2355 81.8619C71.7864 82.366 71.7864 82.366 71.6747 82.0841C71.4513 81.5201 73.1342 79.2253 73.6949 79.0032C74.5324 78.6683 74.478 79.3423 73.5799 80.3506ZM68.4437 70.6534C68.2203 70.0895 68.2774 69.4144 68.2774 69.4144C68.1656 69.1325 68.8381 69.1923 69.3419 69.6452L70.4065 69.8759L69.511 70.8831L68.7246 72.1733L68.4437 70.6534ZM70.0603 75.5527C70.0603 75.5527 70.5094 75.0486 70.6781 74.6556C71.1271 74.1514 71.4619 73.3664 72.0226 73.1442C72.303 73.0331 72.7521 72.529 72.7521 72.529C72.5286 71.9651 71.9679 72.1872 70.9037 73.5875C70.0082 74.5947 69.7279 74.7058 69.8965 74.3127C69.7848 74.0308 70.4025 73.1336 70.8489 72.6305C71.5784 72.0153 72.0249 71.5122 71.9132 71.2302C71.8015 70.9482 71.2407 71.1704 70.1766 72.5707C69.1124 73.9709 68.7203 73.8 69.3924 72.2289C70.0644 70.6577 70.9055 70.3245 71.9701 70.5552C72.4739 71.0081 72.866 71.179 72.9196 72.1334C72.9744 73.0903 72.9164 73.7627 72.636 73.8738C72.0752 74.096 70.619 75.3253 70.562 76.0004C70.3933 76.3934 70.113 76.5044 69.8896 75.9405C69.78 75.6638 69.78 75.6638 70.0603 75.5527ZM71.4027 75.6734C71.9087 74.4943 73.0276 74.051 72.9707 74.726C72.9707 74.726 72.6333 75.5121 71.7367 76.5167C70.2235 78.4211 69.8314 78.2502 71.4027 75.6734ZM71.1195 79.0448C71.3998 78.9337 71.5684 78.5407 71.5684 78.5407C71.4567 78.2588 72.6907 76.468 73.2514 76.2459C73.2514 76.2459 73.3631 76.5279 73.4748 76.8098C73.81 77.6557 73.81 77.6557 72.6331 78.7714C72.0154 79.6686 71.5689 80.1717 71.2885 80.2827C71.2885 80.2827 71.2885 80.2827 71.0651 79.7188C70.8391 79.1559 70.8391 79.1559 71.1195 79.0448ZM68.4804 83.0202C68.2 83.1313 68.0883 82.8494 67.9765 82.5674C68.2569 82.4563 67.8102 81.3284 67.4761 80.4851C67.141 79.6392 66.36 77.6681 66.1946 76.4318C65.9175 74.9135 65.6394 73.3925 65.417 72.8312C65.1946 72.2699 65.2506 71.5923 65.8667 70.6988C65.9237 70.0237 66.5398 69.1302 66.5398 69.1302C66.8772 68.3441 66.8201 69.0192 68.1563 74.0296C68.6021 75.1548 69.1037 77.2397 69.6612 78.6469C70.1081 79.7748 70.5506 82.5294 71.0511 84.6116C72.499 89.904 72.499 89.904 73.1112 92.2682C75.34 99.5317 76.5645 104.26 77.2878 108.535C77.4532 109.771 77.7314 111.292 77.8431 111.574C78.0665 112.138 78.2318 113.374 78.2866 114.331C78.7334 115.459 78.7871 116.413 78.5067 116.525C78.2263 116.636 78.1147 116.354 78.0029 116.072C78.0029 116.072 77.1673 113.143 76.3317 110.215C75.7764 107.176 74.9418 104.251 74.8301 103.969C75.1105 103.858 74.887 103.294 74.6636 102.73C74.4402 102.166 73.6594 100.195 73.1588 98.1123C72.2115 94.9022 69.5369 86.5134 68.8677 84.8242C68.6442 84.2603 68.4218 83.699 68.7022 83.5879C68.7607 82.9092 68.7608 82.9092 68.4804 83.0202ZM71.2377 114.514C70.62 115.411 70.62 115.411 70.5083 115.129C70.5116 113.5 71.464 111.818 71.7991 112.663C71.9124 112.942 71.5751 113.728 71.2377 114.514ZM72.414 115.027C72.414 115.027 72.5256 115.309 72.4686 115.984C72.5234 116.941 72.8038 116.83 71.9626 117.163C71.2902 117.103 71.2902 117.103 71.7973 115.926C71.9639 115.528 72.414 115.027 72.414 115.027ZM70.6254 112.15C70.2311 113.611 70.2311 113.611 69.896 112.765C69.7843 112.483 69.8413 111.808 70.1797 111.024C70.574 109.563 70.5739 109.563 70.9091 110.409C71.0197 110.689 70.9628 111.364 70.6254 112.15ZM69.9015 109.504C69.2294 111.075 69.2294 111.075 68.7825 109.947C68.7278 108.99 69.3462 106.464 69.907 106.242C70.3534 105.739 70.4075 108.324 69.9015 109.504ZM66.7956 88.5781L67.6367 88.2448C68.4779 87.9116 69.0361 87.6905 69.0361 87.6905C69.5388 88.1407 67.5787 88.9172 66.7956 88.5781ZM69.5365 89.7727C69.9834 90.9006 67.9116 91.3952 67.4648 90.2673C67.2414 89.7033 67.1297 89.4213 67.8022 89.4812L68.9236 89.0369C69.2014 88.9268 69.5935 89.0977 69.5365 89.7727ZM67.2443 86.443C67.805 86.2208 68.3632 85.9997 68.4749 86.2817C68.4749 86.2817 67.9141 86.5038 67.6337 86.6149C66.6809 86.6662 66.6809 86.6661 67.4651 87.0079C67.8572 87.1788 68.1375 87.0678 67.8572 87.1788C66.4605 87.7322 65.845 86.9973 67.2443 86.443ZM66.9671 84.9247C67.5279 84.7025 67.8084 84.5914 67.9201 84.8734C68.0318 85.1553 67.7514 85.2664 67.471 85.3775C66.0717 85.9319 65.5678 85.479 66.9671 84.9247ZM66.9124 83.9677C66.0713 84.3009 65.6792 84.13 65.6245 83.173C65.6814 82.498 65.6813 82.498 65.9617 82.3869C66.2421 82.2759 66.6343 82.4467 66.9147 82.3357C66.9147 82.3357 67.3067 82.5065 67.4184 82.7885C67.6419 83.3525 67.4732 83.7455 66.9124 83.9677ZM66.0198 81.7145C65.7394 81.8256 65.3473 81.6547 65.3473 81.6547C65.2356 81.3728 65.516 81.2617 65.7964 81.1506C66.0768 81.0395 66.6375 80.8174 66.7492 81.0993C66.7492 81.0993 66.3002 81.6034 66.0198 81.7145ZM65.9114 79.8032C66.0231 80.0851 63.3906 80.8018 63.2789 80.5199C62.8868 80.349 63.0555 79.9559 64.2861 79.7946C65.1272 79.4614 65.797 79.5223 65.797 79.5223C66.08 79.4101 66.1918 79.6921 65.9114 79.8032ZM68.0223 91.6745C68.3027 91.5634 68.9751 91.6232 69.2529 91.5132C69.8137 91.291 70.094 91.18 70.2057 91.4619C70.3175 91.7439 70.037 91.855 69.7567 91.966C68.3574 92.5204 67.9654 92.3495 67.8537 92.0675C67.742 91.7855 67.7419 91.7856 68.0223 91.6745ZM68.5808 93.0843C68.5808 93.0843 69.2533 93.1442 69.8115 92.923C70.0918 92.812 70.7643 92.8718 70.876 93.1537C70.9877 93.4357 70.7073 93.5468 70.1466 93.7689C68.7473 94.3233 68.0748 94.2635 68.2434 93.8704C68.1317 93.5885 68.3005 93.1954 68.3005 93.1954C68.3005 93.1954 68.3004 93.1954 68.5808 93.0843ZM71.6559 95.1223C71.7676 95.4043 71.5989 95.7973 70.3683 95.9586C69.2494 96.4018 69.2494 96.4019 68.9143 95.5559C68.6909 94.992 68.6908 94.992 68.9712 94.8809C71.0414 94.3901 71.4335 94.561 71.6559 95.1223ZM70.4231 96.9155C71.5446 96.4712 71.8224 96.3612 72.1575 97.2071C72.3809 97.7711 72.2123 98.1641 71.0934 98.6074C69.4137 99.2728 69.3019 98.9909 69.1365 97.7545C69.3015 97.3599 69.582 97.2488 70.4231 96.9155ZM70.7549 99.3908C72.1542 98.8365 72.1542 98.8365 72.3776 99.4005C72.4893 99.6824 72.7128 100.246 72.4324 100.357C71.9833 100.862 71.7029 100.973 70.7527 101.023C70.0802 100.963 70.0802 100.963 69.8568 100.399C69.6333 99.8352 69.5243 99.5521 70.7549 99.3908ZM71.2493 106.363C70.8572 106.192 71.1376 106.081 71.418 105.97C71.8101 106.141 72.7603 106.09 73.3211 105.868C73.8818 105.646 74.5517 105.707 74.6634 105.989C74.8884 106.549 71.4727 106.927 71.2493 106.363ZM75.1117 107.113C75.2235 107.395 73.8242 107.949 72.8714 108.001C72.1989 107.941 71.6408 108.162 71.6408 108.162C71.6408 108.162 71.5291 107.88 71.4173 107.598C71.3056 107.316 71.3056 107.316 71.586 107.205C71.9781 107.376 72.931 107.325 73.6008 107.386C74.4393 107.053 75.1117 107.113 75.1117 107.113ZM71.7553 105.184C71.1946 105.406 70.8025 105.235 70.6908 104.953C70.5791 104.671 71.1398 104.449 72.3704 104.288C73.0428 104.347 73.9932 104.297 74.1049 104.579C74.2166 104.861 73.378 105.193 71.7553 105.184ZM72.9893 103.393C71.8704 103.836 70.6371 103.999 70.4136 103.435C70.3019 103.153 70.4706 102.76 70.8627 102.931C70.9744 103.213 71.6469 103.272 72.4854 102.94C73.0461 102.718 73.6043 102.497 73.716 102.779C73.8277 103.061 73.55 103.171 72.9893 103.393ZM72.4318 101.986C71.0325 102.54 70.3599 102.48 70.2482 102.198C70.1365 101.916 70.1366 101.916 70.4169 101.805C70.6973 101.694 71.3697 101.754 71.9279 101.533C72.4886 101.311 73.0468 101.09 73.1585 101.372C73.2702 101.654 72.9925 101.764 72.4318 101.986ZM66.9582 93.0747C67.1816 93.6387 67.1245 94.3137 67.1245 94.3137C67.1245 94.3137 66.5069 95.2108 66.0025 96.3863L65.1606 98.3479L64.6031 96.9407C64.1563 95.8128 64.0457 95.5335 65.1098 94.1332C66.1193 91.776 66.68 91.5538 66.9582 93.0747ZM65.9992 98.0157C66.3365 97.2296 66.9516 96.3335 66.8409 96.0542C66.8979 95.3791 67.7364 95.047 68.0715 95.8929C68.1832 96.1748 68.0147 96.5679 67.7343 96.6789C67.4539 96.79 67.1165 97.5761 66.5014 98.4722C65.6596 100.434 65.6596 100.434 65.4373 99.8725C65.2128 99.3059 65.3814 98.9129 65.9992 98.0157ZM66.9487 99.5938C67.4547 98.4147 67.9592 97.2392 68.0709 97.5212C68.463 97.6921 68.7948 100.167 68.5144 100.278C68.5144 100.278 67.785 100.894 67.561 101.958L66.8863 103.53L66.4395 102.402C66.2171 101.841 66.274 101.166 66.9487 99.5938ZM67.8961 102.804C68.4575 100.953 69.0183 100.731 69.2407 101.293C69.3524 101.575 68.8463 102.754 68.6222 103.818C67.6687 105.498 67.6688 105.498 67.4464 104.936C67.224 104.375 67.2784 103.701 67.8961 102.804ZM68.5084 105.168C68.9037 103.71 69.6305 103.096 69.6842 104.05C69.5155 104.443 69.2899 105.511 68.9542 106.293C68.4482 107.473 68.4482 107.473 68.2247 106.909C68.113 106.627 68.171 105.954 68.5084 105.168ZM74.9315 115.657C75.9413 114.931 76.8915 114.881 76.4425 115.385C76.4425 115.385 75.9934 115.889 75.1549 116.221C73.587 117.169 73.3636 116.605 74.9315 115.657ZM74.8767 114.7C73.8695 115.426 73.8695 115.426 73.7578 115.144C73.6461 114.862 73.9264 114.751 75.0453 114.307C75.6061 114.085 76.4447 113.753 76.5564 114.035L74.8767 114.7ZM74.7113 113.464C73.8701 113.797 73.312 114.018 73.312 114.018C73.0886 113.454 73.369 113.343 74.88 113.071L76.391 112.799L74.7113 113.464ZM75.103 112.004C73.4233 112.669 72.4705 112.721 72.6392 112.328C72.8079 111.935 72.9766 111.541 73.6464 111.602C74.2072 111.38 74.7653 111.159 74.934 110.766C74.8222 110.484 74.5419 110.595 73.5916 110.645C73.0309 110.867 72.361 110.807 72.2493 110.525C72.2493 110.525 72.81 110.303 73.7603 110.252C75.2713 109.98 75.2713 109.98 75.6065 110.826C76.2246 111.56 76.2245 111.56 75.103 112.004ZM73.1494 109.522C71.9188 109.683 71.5269 109.512 71.6955 109.119C71.5838 108.837 71.8641 108.726 72.1445 108.615C72.5366 108.786 73.2091 108.846 73.7673 108.624C74.6084 108.291 75.2782 108.352 75.3899 108.634C75.6123 109.195 74.4907 109.64 73.1494 109.522ZM61.2187 72.8633C61.8912 72.9231 61.8912 72.9231 61.8912 72.9231C60.7723 73.3664 60.3802 73.1955 60.2685 72.9135C60.1568 72.6316 60.4356 72.5241 61.2187 72.8633ZM60.544 74.4355L63.9059 73.1036C64.298 73.2745 64.8555 74.6817 64.7986 75.3568C64.6299 75.7498 64.1808 76.2539 62.1091 76.7485C61.4366 76.6886 61.4366 76.6887 60.9908 75.5634L60.544 74.4355ZM64.7954 76.9861L63.9541 77.3194C62.2745 77.9848 61.7137 78.2069 61.4903 77.643C61.3797 77.3637 63.7319 76.758 64.7954 76.9861ZM62.3292 78.9418C62.2175 78.6598 65.0187 77.55 65.4108 77.7209C65.6912 77.6099 65.5225 78.0029 65.6343 78.2849C65.4656 78.6779 64.9048 78.9001 64.0663 79.2323C62.8357 79.3936 62.275 79.6157 62.1633 79.3338L62.3292 78.9418ZM57.6913 72.9589C58.1973 71.7797 58.7555 71.5586 58.6985 72.2336C58.8102 72.5156 59.1991 74.3159 59.98 76.287C60.6492 77.9762 61.0381 79.7765 61.0381 79.7765C61.1498 80.0585 59.9734 79.5458 59.0812 78.9236C58.0773 78.0195 57.296 74.4174 57.6913 72.9589ZM61.4852 82.5354C60.8675 83.4326 60.5871 83.5436 60.4207 82.3047C60.3089 82.0227 60.366 81.3476 60.2543 81.0657C60.0309 80.5017 60.0308 80.5018 60.815 80.8435C61.5991 81.1853 61.8226 81.7493 61.4852 82.5354ZM62.2092 85.1815C62.6582 84.6774 63.385 84.0633 63.385 84.0633C63.6654 83.9522 63.8341 83.5591 63.7224 83.2771C63.7794 82.6021 62.9382 82.9354 62.1544 84.2245C61.6484 85.4037 61.6484 85.4037 61.3133 84.5578C60.8095 84.1049 61.2586 83.6008 62.0434 82.3142C62.4925 81.8101 62.7728 81.699 63.5544 82.0418C64.0582 82.4947 64.1698 82.7767 64.5039 83.62C64.6704 84.8589 64.5007 85.2493 63.717 86.5385C62.4841 88.3318 62.2038 88.4429 61.7569 87.315C61.8165 86.6389 61.8708 85.965 62.2092 85.1815ZM63.4359 88.2779C64.0536 87.3808 64.3884 86.5957 64.6688 86.4846C65.0061 85.6985 65.1178 85.9805 65.6183 88.0628C66.0651 89.1906 66.2306 90.4269 66.3423 90.7089C66.3423 90.7089 65.7245 91.6061 65.1084 92.4996C64.6593 93.0037 64.3246 93.7888 64.4363 94.0707L64.2677 94.4638C63.9873 94.5749 63.7638 94.0109 63.6521 93.729C63.317 92.8831 63.2052 92.6011 64.6078 90.4174C65.3916 89.1282 65.8406 88.6241 65.2799 88.8462C65.2799 88.8462 64.5505 89.4614 63.9354 90.3575C62.983 92.0398 62.983 92.0398 62.9282 91.0828L62.4814 89.9549C62.3718 89.6782 62.7091 88.8921 63.4359 88.2779ZM58.2289 89.0389L56.2202 83.9687C56.3889 83.5757 58.4092 80.4948 58.6896 80.3837C58.97 80.2726 59.6938 82.9188 60.4178 85.565C61.4758 89.0545 62.3115 91.9826 62.9237 94.3468C63.2008 95.8651 64.0366 98.7932 64.9292 101.046C65.8218 103.299 66.4339 105.664 66.6574 106.228C66.8808 106.792 66.9925 107.074 66.8239 107.467C66.9356 107.749 67.0473 108.031 67.0473 108.031C67.4394 108.201 67.6628 108.765 67.6048 109.438L68.274 111.127C68.3857 111.409 68.6627 112.927 69.333 114.619C70.0569 117.265 70.1106 118.22 69.4961 117.487C69.2727 116.923 68.712 117.146 68.0421 117.085C67.201 117.418 67.0893 117.136 66.8659 116.572C66.534 114.097 65.6984 111.169 64.1909 106.552C62.9631 103.453 61.6817 99.3999 61.1812 97.3177C60.2938 95.0625 58.8438 91.4021 58.2289 89.0389ZM62.2361 107.327C61.8987 108.113 61.564 108.898 61.564 108.898L61.2289 108.052C60.8938 107.206 60.6714 106.645 61.5669 105.638L62.239 104.066L62.5741 104.912C62.6858 105.194 62.4591 106.26 62.2361 107.327ZM62.963 106.713L63.4098 107.841C63.4645 108.797 63.4065 109.47 63.0718 110.255L62.5658 111.434L62.2307 110.588C62.119 110.306 62.0642 109.349 62.2909 108.284L62.963 106.713ZM60.9514 104.903C60.6711 105.014 60.671 105.014 60.5024 105.407C60.4454 106.082 60.4454 106.082 60.222 105.518C59.9986 104.954 60.7856 102.035 61.3464 101.813C61.3464 101.813 61.6268 101.702 61.7385 101.984C61.9619 102.548 61.3435 105.074 60.9514 104.903ZM60.3935 101.865C60.0562 102.651 59.4411 103.547 59.4411 103.547C59.3294 103.265 58.8836 102.14 59.1639 102.028C59.4443 101.917 59.7816 101.131 60.0057 100.067C60.401 98.6085 60.4012 98.6084 60.7353 99.4517C60.9576 100.013 60.9006 100.688 60.3935 101.865ZM59.8962 98.1529C59.7276 98.546 59.3902 99.3321 59.3348 100.003C58.9975 100.79 58.6628 101.575 58.6628 101.575C58.3824 101.686 58.1053 100.167 58.4426 99.3813C58.6113 98.9882 58.837 97.9202 59.0041 97.5308C59.1712 97.1414 59.3414 96.7447 59.6218 96.6336C59.9021 96.5225 60.3453 97.6488 59.8962 98.1529ZM58.4976 97.079C58.1603 97.8651 57.8255 98.6501 57.9362 98.9295C57.8792 99.6045 57.8793 99.6045 57.6559 99.0405C57.0404 98.3057 58.2765 94.883 58.8373 94.6608C59.2874 94.1593 59.1723 95.5068 58.4976 97.079ZM58.5032 93.8176C58.2228 93.9286 57.8854 94.7147 57.381 95.8902L56.9867 97.3513L56.5398 96.2234C56.3164 95.6595 56.3734 94.9845 56.6001 93.9191C57.3301 91.6755 58.1713 91.3423 58.4484 92.8606C58.6718 93.4245 58.5032 93.8176 58.5032 93.8176ZM56.4945 88.7474C56.2142 88.8584 55.8768 89.6445 55.2606 90.538L54.6965 92.3896L54.3614 91.5437C54.138 90.9797 54.195 90.3047 54.5904 88.8462C55.7125 86.7736 56.1615 86.2694 56.719 87.6767C56.9435 88.2432 56.7749 88.6363 56.4945 88.7474ZM56.5492 89.7044C56.9982 89.2002 56.9983 89.2002 57.2217 89.7642C57.4451 90.3281 57.3881 91.0032 56.4346 92.6828L55.7046 94.9263L55.3694 94.0803C55.0327 93.2381 55.6527 90.709 56.5492 89.7044ZM64.1299 113.744L64.8018 112.173L65.2486 113.301C65.4721 113.865 65.3035 114.258 65.0231 114.369C65.0231 114.369 64.5741 114.873 64.4054 115.266L64.1797 116.334L63.8446 115.489C63.7355 115.206 63.7925 114.53 64.1299 113.744ZM63.8527 112.226C63.3467 113.405 63.3467 113.405 63.235 113.123C63.0116 112.559 63.2952 110.819 63.8533 110.598C64.1337 110.487 64.4141 110.376 64.4141 110.376C64.5248 110.655 64.1874 111.441 63.8527 112.226ZM50.5719 80.3405C50.8522 80.2294 51.2443 80.4003 51.6364 80.5712L52.5323 81.1949L52.1949 81.981C51.2995 82.9882 51.2995 82.9883 50.7409 81.5784C50.7953 80.9044 50.5719 80.3405 50.5719 80.3405ZM53.2474 88.7319C53.1357 88.4499 53.3615 87.3818 53.9776 86.4883C54.5953 85.5911 54.9311 84.8087 54.8194 84.5268C54.988 84.1337 54.2586 84.7489 53.7552 85.927C52.9715 87.2162 52.691 87.3273 52.4676 86.7634C52.2442 86.1994 53.5921 83.0587 54.1528 82.8365C54.4332 82.7254 54.3215 82.4434 53.9294 82.2725C53.5373 82.1017 53.3686 82.4947 52.7535 83.3909C52.4161 84.177 52.0814 84.962 52.0814 84.962C51.5206 85.1842 51.6346 83.8342 52.0847 83.3327C52.3651 83.2216 52.5338 82.8285 52.5338 82.8285C52.3104 82.2646 53.3175 81.5394 53.9899 81.5992C54.7741 81.941 56.1673 86.2763 55.6066 86.4985C55.3262 86.6096 54.5994 87.2237 54.5424 87.8987C53.862 89.464 53.3011 89.6862 53.2474 88.7319ZM64.8537 116.391C65.1911 115.604 65.3598 115.211 65.6375 115.101C65.6375 115.101 65.7492 115.383 65.9726 115.947C65.9157 116.622 66.0274 116.904 65.1889 117.237L64.07 117.68L64.8537 116.391ZM50.5541 93.3813C50.2189 92.5354 49.6068 90.1711 48.9376 88.4819L47.4875 84.8216L48.6096 82.749L49.6201 80.3943L50.1206 82.4766C50.5094 84.2768 52.8531 90.193 58.3195 103.991C61.5012 111.203 62.2252 113.85 62.8374 116.214C63.0028 117.45 62.7224 117.561 61.3811 117.443C60.8203 117.665 60.4283 117.494 60.3736 116.537C59.8731 114.455 59.2038 112.766 57.641 108.821C56.468 106.679 54.7374 103.13 54.0672 101.438C53.2863 99.4667 52.0016 97.0427 51.6665 96.1967C51.0547 95.4635 50.4971 94.0563 50.5541 93.3813ZM58.6391 116.246C58.4135 117.314 57.6867 117.928 57.4633 117.364C57.3516 117.082 57.3516 117.082 57.3516 117.082C57.632 116.971 57.9693 116.185 57.913 115.232C58.3073 113.771 58.585 113.661 58.6424 114.616C58.8658 115.18 58.8078 115.853 58.6391 116.246ZM59.535 116.87C59.7584 117.434 59.5898 117.827 59.5898 117.827C59.3094 117.938 59.1977 117.656 59.0859 117.374C58.9742 117.092 58.8626 116.81 59.143 116.699C59.143 116.699 59.4233 116.588 59.535 116.87ZM56.7941 115.675C56.5707 115.111 56.517 114.157 56.8543 113.371C57.5264 111.799 57.8068 111.688 57.8615 112.645C57.9732 112.927 58.0269 113.882 57.4118 114.778C57.0164 116.236 57.0165 116.236 56.7941 115.675ZM56.7969 112.415C56.0132 113.704 56.1249 113.986 55.9015 113.422C55.7898 113.14 55.735 112.183 55.9617 111.117C56.5231 109.267 56.5231 109.267 56.8572 110.11C57.361 110.563 57.303 111.235 56.7969 112.415ZM54.8402 111.562C54.3364 111.109 54.9001 107.626 55.4608 107.404C55.4608 107.404 55.8529 107.575 55.9646 107.857C56.4104 108.982 55.1743 112.405 54.8402 111.562ZM54.7883 107.344C54.451 108.13 54.1162 108.916 54.2269 109.195C54.1699 109.87 54.17 109.87 53.9466 109.306C53.7231 108.742 53.9493 106.046 54.3984 105.542C55.1289 104.929 55.015 106.279 54.7883 107.344ZM53.899 103.462C53.899 103.462 54.0107 103.744 54.1224 104.026C54.2341 104.308 54.0074 105.373 53.6727 106.158C53.2773 107.617 52.9969 107.728 52.8862 107.449C52.6628 106.885 53.5069 103.291 53.899 103.462ZM52.1645 103.17C52.9483 101.881 52.8376 101.602 53.06 102.163C53.1717 102.445 53.2264 103.402 52.8881 104.186C52.2134 105.758 52.2134 105.758 51.99 105.194C51.882 104.913 51.9389 104.238 52.1645 103.17ZM51.3234 103.504C51.0999 102.94 51.4406 100.524 51.887 100.021C52.1674 99.91 52.1674 99.91 52.3908 100.474C52.6142 101.038 51.5468 104.067 51.3234 103.504ZM50.7173 96.2496L51.4982 98.2208C52.2254 99.2376 52.2255 99.2376 51.495 99.8501C51.2146 99.9612 50.8772 100.747 50.9889 101.029C50.7632 102.097 50.4829 102.208 50.1477 101.363C50.036 101.081 50.093 100.406 50.3197 99.3401C50.9374 98.443 50.9917 97.769 50.9917 97.769C50.7114 97.88 50.2623 98.3842 50.2079 99.0582C49.5902 99.9553 49.5902 99.9553 49.4785 99.6734C49.3668 99.3914 48.9748 99.2205 48.8631 98.9385C48.3593 98.4857 49.3697 96.131 49.9305 95.9089C50.2135 95.7968 50.6056 95.9677 50.7173 96.2496ZM47.9819 91.7936C48.6543 91.8534 48.766 92.1354 49.2117 93.2606C49.6586 94.3885 49.881 94.9498 49.3203 95.172C49.0399 95.283 48.8712 95.6761 48.9829 95.958C49.0946 96.24 48.9259 96.6331 48.6455 96.7442C47.75 97.7514 47.6927 96.7954 48.3685 95.2258C49.0406 93.6547 48.5404 93.2034 47.5843 94.8841C47.3586 95.9521 47.3586 95.9522 47.1352 95.3882C47.0235 95.1062 47.0804 94.4312 47.6966 93.5377C48.0339 92.7516 48.4804 92.2485 48.3697 91.9692C48.2591 91.6899 47.5285 92.3024 46.9134 93.1986C46.5761 93.9847 46.5762 93.9846 46.4645 93.7027C46.3528 93.4207 46.5213 93.0277 46.69 92.6346C47.0289 91.8449 47.3094 91.7337 47.9819 91.7936ZM44.9605 90.71L45.7447 91.0518C46.5289 91.3936 46.5288 91.3936 46.4718 92.0686C45.8541 92.9658 45.8541 92.9658 45.4073 91.8379L44.9605 90.71ZM41.9874 93.8422C41.764 93.2782 43.1664 91.0945 43.5585 91.2654C43.5585 91.2654 44.0624 91.7182 44.2858 92.2822C44.3975 92.5642 45.2354 93.8603 45.6822 94.9882C46.4094 96.005 46.8553 97.1302 46.8553 97.1302C46.8553 97.1302 47.0787 97.6942 47.1904 97.9761C47.5825 98.147 48.6437 100.007 49.5363 102.26C50.4289 104.513 51.602 106.655 52.0478 107.781C52.3829 108.627 53.6665 111.048 54.5591 113.301C55.5635 115.836 56.513 117.414 56.2327 117.525C56.2327 117.525 52.4819 117.057 52.0898 116.886C51.8094 116.997 50.6933 114.18 47.9585 108.096C46.0616 103.308 43.7726 98.3484 43.2151 96.9412L41.9874 93.8422ZM107.046 129.655C106.934 129.373 105.704 127.906 104.585 126.718C103.355 125.251 102.406 123.673 102.294 123.391C102.07 122.827 101.398 122.767 101.229 123.16C100.949 123.271 102.291 125.02 104.022 126.941C107.43 131.457 108.044 132.189 107.764 132.3C107.483 132.411 107.203 132.522 107.315 132.804C107.426 133.086 106.923 132.633 106.196 131.619C104.408 128.742 100.774 125.295 100.494 125.406C99.9333 125.628 99.8215 125.346 101.555 127.266C103.458 128.793 107.369 133.761 107.535 134.998C107.981 136.123 108.147 137.362 108.147 137.362C107.867 137.473 107.251 136.738 106.805 135.613C104.626 132.568 100.545 127.992 99.9873 128.213C99.7069 128.324 99.7069 128.324 101.833 130.415C102.56 131.432 104.402 133.632 105.855 135.663C107.924 138.429 108.146 138.99 108.313 140.229C108.536 140.793 108.478 141.466 108.198 141.577C108.198 141.577 107.472 140.562 107.137 139.717C105.683 137.686 100.039 130.8 99.7584 130.911C99.3663 130.74 99.9818 131.475 102.665 134.973C105.961 139.206 108.253 142.534 107.915 143.32C107.747 143.713 107.635 143.431 105.792 141.228C104.115 138.633 98.9166 132.872 97.8557 132.643C97.3519 132.19 98.3026 133.771 100.425 135.86C102.047 137.498 104.505 140.436 106.461 142.917C107.188 143.934 107.411 144.495 107.242 144.888C107.185 145.563 106.905 145.674 106.289 144.939C105.228 143.079 101.428 138.393 100.198 136.926C99.0798 135.741 98.3526 134.724 98.3526 134.724C98.2409 134.442 97.9605 134.553 97.6801 134.664C97.7918 134.946 98.1269 135.792 99.1335 136.695C99.8607 137.712 101.814 140.194 103.268 142.225L106.06 146.006L105.499 146.228C104.658 146.561 104.435 145.997 101.977 143.062C99.6862 139.735 95.9408 136.005 95.7721 136.398C95.4918 136.51 96.218 137.524 97.3373 138.711C99.3488 140.521 100.355 141.424 102.759 145.036C103.989 146.503 104.101 146.785 103.652 147.289C103.595 147.964 103.595 147.964 102.587 147.058C102.084 146.606 101.469 145.873 101.246 145.309C100.296 143.731 95.0975 137.971 94.8172 138.082C94.5368 138.193 95.3746 139.489 96.3822 140.395C97.278 141.018 101.804 146.719 102.138 147.563C102.138 147.563 101.97 147.956 101.689 148.067C101.128 148.289 100.625 147.836 100.291 146.993C96.8827 142.477 93.527 138.919 92.9688 139.14C92.6885 139.251 92.6884 139.251 92.8001 139.533C92.8001 139.533 93.9183 140.718 94.9233 141.625C96.5454 143.263 97.7728 144.731 100.065 148.061C100.569 148.514 100.4 148.907 100.008 148.736C99.7276 148.847 99.4474 148.958 99.4474 148.958C98.8866 149.18 98.1593 148.163 96.2058 145.681C94.529 143.086 91.5109 140.373 91.845 141.217C91.9567 141.498 92.4025 142.624 93.1867 142.966C94.3049 144.151 96.6516 146.806 97.6012 148.384C97.9363 149.23 98.048 149.512 97.7677 149.623C97.4873 149.734 97.3756 149.453 97.2639 149.171C97.0405 148.607 96.4796 148.829 96.4226 149.504C96.3657 150.179 95.8619 149.726 94.8579 148.822C92.6774 145.774 90.2201 142.839 90.0514 143.232C90.1631 143.514 90.4983 144.36 91.6166 145.545C94.1856 148.762 95.3048 149.95 95.0244 150.061C95.1362 150.343 94.7441 150.172 94.7441 150.172C94.352 150.001 94.0717 150.112 93.6796 149.941C93.3992 150.052 93.0071 149.881 92.1692 148.585C90.7159 146.554 89.8779 145.258 89.0963 144.915C87.8084 144.121 88.1435 144.967 89.6538 146.322C90.381 147.339 91.4993 148.524 91.8334 149.368C92.783 150.946 92.8947 151.228 92.3339 151.45C91.7732 151.672 91.7732 151.672 90.099 149.076C88.4222 146.481 87.3065 145.295 86.8575 145.799L87.1926 146.645C87.5847 146.816 88.5913 147.719 89.5419 149.3C90.9953 151.331 91.107 151.613 90.9383 152.006C90.2089 152.621 88.8698 150.871 86.7473 147.151C86.2435 146.698 86.1317 146.416 85.8513 146.527C85.2906 146.749 85.4023 147.031 86.4088 147.934C87.5271 149.119 89.4247 152.279 89.2586 152.671C88.9213 153.457 87.9137 152.552 87.0785 151.254C85.4017 148.66 84.2834 147.474 84.0057 147.584C83.7253 147.696 83.9488 148.259 85.7942 150.461C86.6321 151.758 87.6397 152.663 87.7514 152.945C87.8631 153.227 87.3023 153.449 85.3992 153.551C84.1686 153.712 83.7765 153.541 83.5531 152.977C83.1063 151.849 80.3138 148.068 79.6424 148.011C78.7465 147.387 78.8013 148.344 79.9195 149.529C80.7037 149.871 81.4299 150.885 81.765 151.731C82.3805 152.466 82.995 153.198 83.1067 153.48C83.4988 153.651 83.2183 153.762 82.9379 153.873C81.9851 153.925 81.5957 153.753 82.0422 153.25C81.6501 153.079 78.8575 149.298 78.5224 148.452C78.299 147.888 78.0187 147.999 78.0187 147.999C77.4579 148.221 78.0154 149.628 79.2464 151.098C81.0919 153.3 81.7048 154.036 81.035 153.975C80.4742 154.197 80.0821 154.026 79.4692 153.29C78.1275 151.541 76.2847 149.338 76.0043 149.449C75.7239 149.561 76.3394 150.295 77.7928 152.326C79.4149 153.964 79.6382 154.528 78.7424 153.904C78.3503 153.734 77.8464 153.281 77.6241 152.719C77.2889 151.873 76.6746 151.141 76.5059 151.534C76.6176 151.816 76.841 152.38 77.3437 152.83C78.1816 154.127 78.2933 154.409 77.9012 154.238C77.6208 154.349 77.0053 153.614 76.6712 152.771C75.7216 151.193 75.161 151.415 76.2223 153.275C76.4457 153.839 76.7798 154.682 76.7798 154.682C76.7798 154.682 76.0524 153.665 75.0459 152.762C74.208 151.466 73.7042 151.013 73.4238 151.124C72.8631 151.346 72.8632 151.346 74.3735 152.702C75.6035 154.169 75.8268 154.733 75.5465 154.844C74.9857 155.066 73.4232 152.753 73.0891 151.909C72.8657 151.345 72.4736 151.174 72.3049 151.567L73.0858 153.539C73.5896 153.991 73.9238 154.835 73.9238 154.835C73.7551 155.228 72.5252 153.761 71.8006 152.743C71.0744 151.729 70.6243 152.23 71.3515 153.247C71.5749 153.811 72.0786 154.264 72.1893 154.543C72.301 154.825 72.4128 155.107 72.1324 155.218C71.852 155.329 71.3482 154.876 70.7338 154.144C69.6725 152.284 69.1117 152.506 70.0613 154.084L70.5081 155.212L69.7809 154.195C68.6627 153.01 67.9928 152.95 68.8281 154.247C69.4436 154.982 68.7142 155.597 67.987 154.58C67.8752 154.298 67.5948 154.409 67.3144 154.52C66.7537 154.742 64.6282 154.283 63.0599 153.599L61.8836 153.086L61.1597 150.44C60.9933 149.201 59.2661 144.022 57.7612 139.405C55.8643 134.617 53.5785 128.028 52.2401 124.65C51.2927 121.44 50.1777 118.625 50.4581 118.514C50.4581 118.514 51.1306 118.574 51.8004 118.635C52.5846 118.977 54.0375 119.377 54.9903 119.326C56.3327 119.446 57.3962 119.674 57.3962 119.674C57.5079 119.956 57.7883 119.845 58.0687 119.734C58.0687 119.734 58.6294 119.512 59.0215 119.683C60.6442 119.692 69.3216 119.511 71.7855 119.187C72.0658 119.076 73.5768 118.804 74.81 118.641C77.666 118.489 79.8484 118.274 81.8084 117.497C85.0017 116.558 95.6431 112.342 96.0922 111.838C96.3726 111.727 97.9405 110.78 99.7889 109.721C102.647 107.937 104.944 106.374 105.28 105.592C105.56 105.48 105.561 105.48 105.784 106.044C105.727 106.719 105.727 106.719 105.166 106.942C104.774 106.771 104.886 107.053 105.333 108.181C106.059 109.195 106.059 109.195 105.276 108.856C104.884 108.685 104.492 108.514 104.38 108.232C104.268 107.95 103.988 108.061 104.099 108.343C104.099 108.343 104.435 109.189 104.937 109.639C106.056 110.824 106.167 111.106 106.11 111.781L105.885 112.849L105.269 112.114C104.765 111.661 104.542 111.097 104.431 110.818C104.321 110.539 104.039 110.647 104.039 110.647C103.478 110.869 103.59 111.151 104.932 112.9C106.162 114.367 106.497 115.213 106.105 115.042C105.824 115.154 105.601 114.59 105.489 114.308C105.154 113.462 103.14 111.653 102.974 112.045C102.805 112.438 103.14 113.284 104.147 114.187C105.154 115.09 106.83 117.685 106.55 117.796C106.27 117.907 105.543 116.893 104.538 115.986C102.693 113.784 101.854 114.116 103.697 116.319C105.932 118.693 106.435 119.143 106.378 119.818C106.209 120.212 106.098 119.93 105.371 118.915C104.142 117.448 102.802 115.698 102.242 115.92C101.961 116.032 102.073 116.313 103.191 117.499C104.702 118.855 106.488 121.732 106.542 122.689C106.597 123.646 106.205 123.476 105.478 122.459C104.416 120.599 102.07 117.943 101.789 118.054C101.509 118.165 101.621 118.447 102.962 120.196C105.197 122.57 107.766 127.415 107.485 127.526C107.205 127.637 106.589 126.903 106.255 126.059C105.025 124.592 101.784 121.315 101.503 121.426C101.223 121.537 101.446 122.101 102.453 123.005C103.852 124.079 106.31 127.016 106.533 127.58C106.757 128.144 106.979 128.705 107.26 128.594C107.371 128.876 107.483 129.158 107.314 129.551C107.268 130.216 107.268 130.216 107.046 129.655Z" fill="#FCFCFC"/>
<path d="M81.3821 146.663C81.1017 146.775 81.5485 147.902 83.393 150.102C84.5112 151.287 85.3501 152.586 85.3501 152.586C85.4618 152.867 85.854 153.038 86.1343 152.927C86.1343 152.927 86.0226 152.645 85.9109 152.363C85.1837 151.347 82.5029 147.847 82.1688 147.004C81.7741 146.834 81.6624 146.552 81.3821 146.663Z" fill="#FCFCFC"/>
<path d="M65.7595 150.572C65.8712 150.854 65.5907 150.965 65.3104 151.076L65.1416 151.469C65.0846 152.144 66.484 151.59 66.6527 151.197C66.8214 150.804 65.9281 150.179 65.7595 150.572Z" fill="#FCFCFC"/>
<path d="M64.1915 151.519C63.9111 151.631 63.6876 151.067 63.5759 150.785C63.4642 150.503 63.1839 150.614 63.1839 150.614C62.6231 150.836 62.7348 151.118 63.6307 151.742C64.2462 152.476 64.5266 152.365 64.5836 151.69C64.5836 151.69 64.4719 151.408 64.1915 151.519Z" fill="#FCFCFC"/>
<path d="M128.549 99.4164C127.085 112.099 137.129 122.359 148.001 127.221C158.75 132.029 169.994 133.433 181.12 128.831C189.095 125.532 196.878 118.747 200.302 110.711C203.892 102.283 202.707 92.5009 197.665 84.9613C191.495 75.734 181.898 71.599 170.999 70.7442C151.173 69.1892 131.041 80.319 127.037 100.615" stroke="#FCFCFC" stroke-width="2" stroke-linecap="round"/>
<path d="M159.971 117.191C164.518 118.83 170.393 120.156 174.159 116.421" stroke="#FCFCFC" stroke-width="2" stroke-linecap="round"/>
<path d="M147.439 97.5599C148.162 99.9664 148.557 100.584 150.931 101.511C152.693 102.199 154.592 102.115 156.426 101.744C160.095 101.003 162.194 99.1141 162.617 95.4491" stroke="#FCFCFC" stroke-width="2" stroke-linecap="round"/>
<path d="M173.945 95.4689C174.94 98.1053 176.615 100.67 179.614 101.016C182.88 101.393 184.765 98.5626 185.498 95.7722" stroke="#FCFCFC" stroke-width="2" stroke-linecap="round"/>
<path fill-rule="evenodd" clip-rule="evenodd" d="M195.545 40.3355C195.827 39.8026 196.488 39.5994 197.021 39.8815C198.194 40.5025 199.36 41.1299 200.52 41.8035C200.544 41.8177 200.582 41.8384 200.63 41.8645C200.839 41.9791 201.242 42.1994 201.558 42.4426C201.905 42.7093 202.616 43.3475 202.49 44.3303C202.435 44.7564 202.213 45.0743 202.019 45.281C201.822 45.4916 201.588 45.6591 201.369 45.7915C200.931 46.0567 200.395 46.2749 199.894 46.4474C199.24 46.6723 198.547 46.8518 198.017 46.9661C199.474 47.6912 201.018 48.3212 202.573 48.9554L202.574 48.9557C202.756 49.03 202.938 49.1044 203.121 49.1789C203.679 49.4072 203.946 50.0446 203.718 50.6026C203.489 51.1607 202.852 51.428 202.294 51.1997C202.103 51.1216 201.911 51.0432 201.717 50.9643C199.423 50.0293 196.946 49.0196 194.754 47.6487L194.746 47.6436C194.639 47.5768 194.27 47.3462 194.028 47.1095C193.964 47.0469 193.847 46.9265 193.754 46.7606C193.684 46.6358 193.445 46.1537 193.74 45.6197C194.013 45.1271 194.502 45.0428 194.626 45.0246C194.81 44.9974 194.988 45.0089 195.119 45.0235C195.677 45.0851 196.35 45.017 197.055 44.9254C197.349 44.8872 198.3 44.6867 199.184 44.3828C199.514 44.2692 199.803 44.1517 200.03 44.0377C199.976 44.0035 199.918 43.9687 199.856 43.9331C199.784 43.8921 199.714 43.8533 199.641 43.8132L199.63 43.8072L199.63 43.8072C199.564 43.771 199.489 43.73 199.423 43.6913C198.302 43.04 197.166 42.4289 195.999 41.811C195.466 41.529 195.263 40.8683 195.545 40.3355ZM200.426 43.7888L200.425 43.789C200.428 43.7863 200.428 43.7862 200.426 43.7888ZM194.851 47.1912C194.851 47.1912 194.851 47.1912 194.851 47.1912L194.855 47.1914L194.851 47.1912ZM184.597 45.9498C184.934 45.5656 185.519 45.5272 185.903 45.8643C186.749 46.6063 187.588 47.3521 188.413 48.1348C188.43 48.1512 188.457 48.1755 188.491 48.2063L188.491 48.2065L188.491 48.2067C188.642 48.3423 188.931 48.6028 189.144 48.8653C189.378 49.1531 189.84 49.8189 189.543 50.6048C189.415 50.9457 189.169 51.1643 188.969 51.2969C188.765 51.432 188.539 51.5244 188.333 51.5907C187.919 51.7236 187.434 51.7987 186.987 51.8428C186.404 51.9003 185.797 51.9128 185.338 51.9032C186.397 52.7866 187.548 53.6086 188.706 54.4362C188.842 54.5333 188.978 54.6304 189.114 54.7278C189.529 55.0254 189.625 55.6035 189.328 56.0191C189.03 56.4347 188.452 56.5303 188.036 56.2328C187.894 56.131 187.751 56.0287 187.607 55.9257C185.897 54.7053 184.052 53.3873 182.513 51.8274L182.507 51.8216C182.432 51.7455 182.172 51.4831 182.019 51.2404C181.978 51.1761 181.906 51.054 181.861 50.899C181.828 50.7823 181.725 50.3378 182.073 49.9552C182.394 49.6022 182.815 49.6284 182.92 49.6376C183.078 49.6514 183.222 49.6956 183.328 49.7334C183.776 49.8934 184.344 49.9691 184.944 50.0316C185.194 50.0576 186.017 50.0784 186.806 50.0007C187.1 49.9717 187.362 49.9314 187.572 49.8819C187.533 49.8431 187.492 49.8029 187.448 49.7614C187.397 49.7136 187.347 49.6678 187.294 49.6204L187.286 49.6134C187.239 49.5706 187.186 49.5222 187.138 49.4772C186.341 48.7204 185.524 47.9941 184.682 47.2559C184.298 46.9189 184.26 46.3341 184.597 45.9498ZM187.946 49.754C187.947 49.7535 187.948 49.7531 187.948 49.753L187.946 49.754ZM187.948 49.7529L187.948 49.753ZM182.682 51.4689C182.682 51.4688 182.683 51.4692 182.685 51.47L182.682 51.4689ZM195.019 55.1084C194.306 54.8578 193.525 55.2325 193.275 55.9454C193.024 56.6583 193.399 57.4394 194.112 57.6901C195.673 58.2391 197.194 58.7856 198.705 59.3847C198.794 59.4202 198.894 59.4572 198.983 59.4898L198.997 59.4952C199.095 59.5314 199.19 59.5664 199.286 59.604C199.369 59.6365 199.448 59.6688 199.522 59.7011C199.261 59.8846 198.925 60.084 198.536 60.2862C197.498 60.827 196.357 61.2523 195.999 61.3543C195.142 61.5988 194.32 61.8083 193.618 61.8356C193.452 61.842 193.23 61.8606 193.006 61.9286C192.856 61.9741 192.265 62.1696 192.019 62.8309C191.752 63.5476 192.138 64.1008 192.248 64.2425C192.394 64.4308 192.561 64.5584 192.652 64.6241C192.997 64.8724 193.497 65.0897 193.642 65.1527L193.653 65.1574C196.624 66.4496 199.882 67.2409 202.9 67.9736L202.9 67.9736C203.154 68.0355 203.407 68.0969 203.658 68.1582C204.393 68.3375 205.133 67.8877 205.312 67.1536C205.491 66.4195 205.042 65.679 204.308 65.4998C204.067 65.4411 203.827 65.3827 203.587 65.3244C201.542 64.8272 199.511 64.3332 197.571 63.7051C198.206 63.4649 199.031 63.1137 199.8 62.7134C200.39 62.4064 201.013 62.0364 201.507 61.6263C201.754 61.4215 202.013 61.1703 202.219 60.8726C202.42 60.5805 202.637 60.1452 202.625 59.6067C202.599 58.3651 201.599 57.7062 201.119 57.44C200.683 57.1972 200.142 56.9991 199.861 56.896C199.797 56.8724 199.746 56.8538 199.713 56.8408C198.151 56.2212 196.589 55.6603 195.019 55.1084ZM199.965 59.3194C199.968 59.3157 199.968 59.3155 199.966 59.3191L199.965 59.3194ZM193.687 64.5724C193.687 64.5724 193.689 64.5722 193.693 64.5718L193.687 64.5724Z" fill="#FCFCFC"/>
</svg>
