<svg width="362" height="59" viewBox="0 0 362 59" fill="none" xmlns="http://www.w3.org/2000/svg">
<path fill-rule="evenodd" clip-rule="evenodd" d="M65.1391 20.9327C67.0345 20.5536 68.2638 18.7097 67.8847 16.8143C67.5056 14.9188 65.6617 13.6896 63.7662 14.0686C62.6801 14.2859 61.6083 14.5079 60.5471 14.7278L60.5471 14.7278C57.3115 15.3981 54.1745 16.048 51.0303 16.4787C50.7504 16.517 50.4511 16.5562 50.1363 16.5973C48.6032 16.7978 46.7038 17.0462 44.8954 17.4834C44.4073 17.6014 43.9036 17.7377 43.393 17.8982C42.2043 17.7942 41.0965 18.2997 40.3864 19.161C39.6141 19.5867 38.8663 20.0963 38.1748 20.7111C36.73 21.9953 36.5999 24.2075 37.8841 25.6523C38.6237 26.4843 39.6711 26.8803 40.7024 26.8213C40.699 26.9779 40.6948 27.1379 40.6896 27.301C40.6441 28.7508 40.5366 30.2729 40.4362 31.5982C40.4227 31.7766 40.4088 31.9568 40.395 32.1364L40.3949 32.1365L40.3949 32.1366L40.3949 32.1366C40.3153 33.171 40.2368 34.1896 40.2368 34.764C40.2368 38.5212 40.9418 42.2261 41.5802 45.5811C41.8313 46.9004 42.072 48.1655 42.2556 49.3585C42.4387 50.5492 42.8636 51.9101 43.9069 52.984C45.048 54.1585 46.4527 54.5123 47.5986 54.5327C48.6329 54.5511 49.6029 54.3053 50.268 54.1135C50.5989 54.0181 51.1348 53.8457 51.5765 53.7037C51.8385 53.6195 52.0674 53.5459 52.2006 53.5053C57.9238 51.7635 63.1739 50.3938 68.9122 49.4374C70.8189 49.1197 72.1069 47.3164 71.7892 45.4097C71.4714 43.503 69.6681 42.2149 67.7614 42.5327C61.6195 43.5563 56.055 45.0152 50.1625 46.8086C49.8425 46.906 49.5262 47.0087 49.2507 47.0982L49.2504 47.0983L49.2502 47.0984L49.1386 47.1346L48.9951 47.181C48.7788 45.8896 48.5498 44.6936 48.3311 43.5515L48.3311 43.5513L48.3311 43.5513C48.1988 42.8606 48.0704 42.1896 47.9507 41.5291C48.4024 41.1847 49.168 40.8867 50.5622 40.6099C50.8728 40.5482 51.2695 40.4809 51.7143 40.4055C52.8526 40.2124 54.3053 39.966 55.4334 39.6242C56.3711 39.34 57.3942 38.9931 58.3525 38.6681L58.3527 38.668L58.3528 38.668C58.8825 38.4884 59.3923 38.3155 59.8569 38.1636C61.2736 37.7006 62.5442 37.3357 63.7333 37.1375C65.64 36.8197 66.928 35.0164 66.6103 33.1097C66.2925 31.203 64.4892 29.915 62.5825 30.2327C60.8643 30.5191 59.1941 31.0159 57.6823 31.51C57.0471 31.7176 56.4684 31.9144 55.9153 32.1024C55.055 32.395 54.2566 32.6665 53.4034 32.925C52.6889 33.1415 52.0296 33.2504 51.1712 33.3921L51.1711 33.3921C50.6188 33.4833 49.984 33.5881 49.199 33.7439C48.611 33.8607 47.951 34.0075 47.2615 34.216C47.2847 33.8549 47.3231 33.3503 47.3731 32.6934L47.4162 32.1268C47.5173 30.792 47.6354 29.1374 47.6862 27.521C47.7219 26.3862 47.7286 25.171 47.6537 24.0482C48.7103 23.8466 49.7933 23.7039 50.9182 23.5557C51.268 23.5096 51.6219 23.463 51.9803 23.4139C55.384 22.9476 58.8509 22.229 62.1397 21.5473L62.1398 21.5473C63.1591 21.336 64.1612 21.1283 65.1391 20.9327ZM49.2275 48.5428C49.2274 48.543 49.2258 48.5387 49.223 48.5296C49.2263 48.5381 49.2277 48.5426 49.2275 48.5428Z" fill="#FCFCFC"/>
<path fill-rule="evenodd" clip-rule="evenodd" d="M352.223 9.70024C353.769 10.86 354.083 13.0538 352.923 14.6002C348.288 20.7801 343.868 27.0362 339.531 33.4001C345.464 40.3192 352.54 45.7616 360.19 51.646L360.464 51.8569C361.996 53.0355 362.283 55.2329 361.104 56.7651C359.926 58.2972 357.728 58.5839 356.196 57.4053L355.645 56.9812C348.674 51.6202 341.622 46.1974 335.485 39.397C334.952 40.1941 334.42 40.9931 333.888 41.794C333.367 42.5783 332.585 43.0847 331.733 43.2742L331.739 43.338C332.003 46.2626 332.284 49.3692 332.284 52.4426C332.284 54.3756 330.717 55.9426 328.784 55.9426C326.851 55.9426 325.284 54.3756 325.284 52.4426C325.284 49.7104 325.045 47.0691 324.791 44.2448L324.79 44.2447C324.693 43.1687 324.594 42.066 324.504 40.9217C324.355 39.0226 324.26 37.0794 324.168 35.1708L324.159 34.9743C324.069 33.1163 323.981 31.2887 323.849 29.4736C323.574 25.7053 323.118 22.1757 322.151 18.9869C321.591 17.137 322.636 15.1829 324.486 14.6223C326.336 14.0617 328.29 15.107 328.851 16.9569C330.039 20.8804 330.542 25.0112 330.83 28.9642C330.938 30.4472 331.018 31.9312 331.09 33.3824C336.318 25.6077 341.654 17.9582 347.323 10.4002C348.483 8.85384 350.677 8.54044 352.223 9.70024Z" fill="#FCFCFC"/>
<path fill-rule="evenodd" clip-rule="evenodd" d="M5.07329 12.012C6.99974 11.8532 8.69024 13.2861 8.84913 15.2125C9.58414 24.1245 9.78374 33.2905 8.00629 42.4316C7.92335 42.8581 7.83143 43.2937 7.73768 43.7379C7.48216 44.9486 7.21314 46.2233 7.07587 47.5534C6.98591 48.425 6.97681 49.1467 7.04378 49.6997C7.05328 49.7782 7.06378 49.8489 7.07477 49.9123C7.75012 49.9321 8.70845 49.8257 9.87582 49.5946C11.6344 49.2466 13.2255 48.7688 14.4994 48.3863C15.062 48.2173 15.5626 48.067 15.9886 47.9546C22.6855 46.1873 29.2492 44.9034 35.9733 43.7827C37.88 43.4649 39.6833 44.753 40.0011 46.6597C40.3189 48.5664 39.0308 50.3697 37.1241 50.6875C30.5239 51.7875 24.1893 53.0301 17.7746 54.7229C17.6325 54.7604 17.3659 54.8404 17.0067 54.9481C15.753 55.3243 13.3727 56.0384 11.2348 56.4615C9.8107 56.7433 8.17208 56.9731 6.65518 56.901C5.33758 56.8385 3.01431 56.5031 1.56848 54.5368C0.623366 53.2515 0.245018 51.784 0.0945344 50.5412C-0.0584896 49.2774 -0.00614788 47.9878 0.112855 46.8348C0.292389 45.0952 0.680961 43.26 0.946639 42.0052C1.02174 41.6505 1.08702 41.3422 1.13498 41.0955C2.73213 32.8816 2.58785 24.4577 1.87281 15.7879C1.71393 13.8614 3.14683 12.1709 5.07329 12.012ZM6.5295 49.8498C6.53084 49.8488 6.54935 49.8528 6.58106 49.8648C6.54402 49.8568 6.52817 49.8508 6.5295 49.8498Z" fill="#FCFCFC"/>
<path fill-rule="evenodd" clip-rule="evenodd" d="M124.597 0.790678C125.769 1.14167 126.435 2.37657 126.084 3.54891C125.674 4.91824 125.277 6.30913 124.876 7.71244C123.642 12.0371 122.374 16.4798 120.59 20.7732C120.121 21.9034 118.824 22.4389 117.694 21.9695C116.564 21.5 116.028 20.2033 116.498 19.0732C118.174 15.0383 119.343 10.9445 120.56 6.68366C120.973 5.23576 121.392 3.76858 121.839 2.27787C122.19 1.10553 123.425 0.439688 124.597 0.790678Z" fill="#FCFCFC"/>
<path fill-rule="evenodd" clip-rule="evenodd" d="M257.575 16.4471C255.918 17.5133 254.355 18.7025 252.968 20.0449C248.574 24.2984 246.003 30.0516 247.366 37.7339C248.601 44.6916 252.721 50.119 259.552 52.6563C262.892 53.8967 267.02 53.8755 270.67 53.0584C274.296 52.2468 278.15 50.4903 280.568 47.5345C283.172 44.3526 284.168 40.0025 284.275 36.0667C284.383 32.0905 283.605 27.9183 282.014 24.738C279.735 20.1789 276.481 17.1736 272.785 15.0951C272.894 14.4682 272.833 13.8041 272.573 13.1721C271.84 11.3838 269.795 10.5291 268.007 11.263C267.266 11.5668 266.512 11.8826 265.749 12.2127C264.246 11.7692 262.726 11.402 261.217 11.0786C259.327 10.6736 257.466 11.8775 257.061 13.7676C256.855 14.7315 257.067 15.6877 257.575 16.4471ZM266.146 19.7183C262.883 21.2693 259.996 22.9844 257.837 25.0745C254.943 27.8755 253.342 31.3446 254.259 36.5104C255.097 41.2349 257.678 44.4929 261.989 46.0943C263.7 46.7297 266.378 46.846 269.141 46.2275C271.929 45.6034 274.094 44.3933 275.151 43.1019C276.394 41.5827 277.193 38.9901 277.277 35.8762C277.361 32.8026 276.728 29.818 275.754 27.8685C273.684 23.7302 270.438 21.3359 266.146 19.7183Z" fill="#FCFCFC"/>
<path fill-rule="evenodd" clip-rule="evenodd" d="M293.118 20.084C295.387 19.9569 298.659 19.9278 301.62 20.3327C303.885 20.6424 305.509 21.1501 306.386 21.7203C306.579 21.8456 306.696 21.9494 306.763 22.0201C306.795 22.0546 306.815 22.08 306.825 22.0953C306.831 22.103 306.834 22.1085 306.836 22.1118L306.836 22.1123L306.837 22.1192C306.839 22.1405 306.844 22.2288 306.806 22.404C306.464 23.939 305.102 25.9588 302.845 28.1748C300.689 30.2924 298.131 32.1919 296.129 33.5267C296.07 33.5661 295.995 33.6159 295.907 33.6732C295.155 29.0982 294.182 24.5789 293.118 20.084ZM286.77 17.8129C286.727 17.6644 286.694 17.5114 286.671 17.3544C286.388 15.4423 287.708 13.6625 289.62 13.3793C291.554 13.0928 297.353 12.684 302.568 13.3972C305.124 13.7467 308.001 14.4211 310.202 15.8517C311.347 16.5963 312.463 17.6456 313.159 19.1075C313.878 20.6167 314.006 22.2692 313.639 23.9225C312.84 27.517 310.232 30.7314 307.75 33.169C306.595 34.3033 305.367 35.3651 304.165 36.3242C311.152 39.3072 317.02 44.689 321.314 50.0568C322.521 51.5662 322.277 53.7688 320.767 54.9763C319.258 56.1838 317.055 55.9391 315.848 54.4297C310.884 48.2254 304.216 42.8216 296.93 41.3509C297.247 44.5229 297.426 47.729 297.426 50.9791C297.426 52.9121 295.859 54.4791 293.926 54.4791C291.993 54.4791 290.426 52.9121 290.426 50.9791C290.426 40.8476 288.54 31.0211 286.097 20.8175C285.835 19.724 286.118 18.6275 286.77 17.8129ZM297.065 41.3326C297.063 41.333 297.046 41.3333 297.017 41.3324C297.051 41.3318 297.066 41.3322 297.065 41.3326Z" fill="#FCFCFC"/>
<path fill-rule="evenodd" clip-rule="evenodd" d="M148.012 14.2372C149.332 14.5185 151.221 15.2401 152.293 17.1688C153.232 18.8585 152.623 20.9893 150.933 21.9281C149.425 22.7657 147.566 22.3712 146.517 21.0761C146.111 20.9962 145.447 20.9692 144.538 21.0448C142.855 21.1849 141.096 21.5983 140.009 21.8541C139.899 21.88 139.796 21.9042 139.7 21.9264C137.719 22.3869 135.766 22.8883 134.042 23.6381C132.32 24.3869 131.099 25.2705 130.356 26.3265C130.109 26.6765 130.032 26.888 130.009 26.9776C130.028 27.0107 130.062 27.0629 130.123 27.1362C130.647 27.7672 131.991 28.6175 134.313 29.4732C137.64 30.6987 141.387 31.4294 144.184 31.9747C145.248 32.1821 146.174 32.3626 146.887 32.5334C147.162 32.5992 147.542 32.6759 148.082 32.7847C148.594 32.8878 149.208 33.0116 149.851 33.1567C151.101 33.4388 152.658 33.8427 154.034 34.4518C155.2 34.9681 157.259 36.0595 158.06 38.2755C159.032 40.9651 157.585 43.2825 156.098 44.769C149.075 51.7918 138.009 53.5175 129.83 53.9719C127.9 54.0791 126.248 52.6014 126.141 50.6714C126.034 48.7414 127.512 47.0899 129.442 46.9826C137.095 46.5574 145.277 45.0023 150.377 40.5403C149.776 40.3408 149.072 40.1569 148.31 39.9851C147.757 39.8602 147.217 39.7512 146.7 39.647L146.631 39.6331C146.162 39.5387 145.665 39.4386 145.257 39.341C144.908 39.2572 144.306 39.1404 143.526 38.9889C140.784 38.456 135.838 37.4951 131.893 36.0416C129.387 35.1182 126.516 33.7506 124.736 31.6062C123.773 30.4457 123.036 28.943 123.001 27.1414C122.967 25.3633 123.624 23.7295 124.631 22.298C126.39 19.7988 128.885 18.2476 131.25 17.2191C133.612 16.1916 136.115 15.5731 138.115 15.1081C138.196 15.0894 138.291 15.0669 138.399 15.0414C139.449 14.7924 141.715 14.2555 143.958 14.0689C145.184 13.9669 146.641 13.9452 148.012 14.2372ZM151.796 41.1804C151.796 41.1805 151.794 41.1791 151.791 41.1762C151.794 41.179 151.796 41.1804 151.796 41.1804ZM151.478 39.447C151.488 39.4286 151.494 39.419 151.495 39.4189C151.496 39.4187 151.491 39.428 151.478 39.447ZM129.988 26.9335C129.989 26.9336 129.991 26.9385 129.993 26.9479C129.989 26.9381 129.988 26.9334 129.988 26.9335ZM130 27.0184C130 27.0247 129.999 27.0279 129.999 27.0279C129.999 27.028 129.999 27.0248 130 27.0184ZM146.737 21.1349C146.737 21.1352 146.728 21.1322 146.712 21.1249C146.73 21.1309 146.738 21.1346 146.737 21.1349Z" fill="#FCFCFC"/>
<path fill-rule="evenodd" clip-rule="evenodd" d="M93.9152 16.7104C92.9265 15.0493 90.7784 14.5043 89.1174 15.493C87.9548 16.1851 87.3389 17.4451 87.4131 18.7086C87.3129 18.7105 87.2128 18.7125 87.113 18.7149C83.5029 18.7995 79.3297 19.2138 75.7162 21.3551C74.0533 22.3405 73.5041 24.4875 74.4895 26.1504C75.475 27.8134 77.6219 28.3626 79.2848 27.3771C81.2709 26.2002 83.9031 25.792 87.277 25.713C88.3855 25.687 89.4799 25.6957 90.6172 25.7074C93.84 33.2875 95.787 42.6521 95.787 50.3423C95.787 52.2753 97.354 53.8423 99.287 53.8423C101.22 53.8423 102.787 52.2753 102.787 50.3423C102.787 42.6282 101.074 33.4776 98.0678 25.4904C100.814 25.2146 103.543 25.2611 106.478 25.311L106.479 25.3111C107.673 25.3314 108.902 25.3523 110.18 25.3523C112.113 25.3523 113.68 23.7853 113.68 21.8523C113.68 19.9193 112.113 18.3523 110.18 18.3523C109.169 18.3523 108.103 18.334 107.001 18.3152C103.825 18.2609 100.354 18.2015 97.0487 18.5588C96.4093 18.6279 95.7375 18.6703 95.0297 18.695C94.6689 18.0146 94.2973 17.3523 93.9152 16.7104Z" fill="#FCFCFC"/>
<path fill-rule="evenodd" clip-rule="evenodd" d="M238.964 14.0108C240.891 13.8606 242.575 15.3011 242.725 17.2283C242.899 19.4572 243.18 21.6777 243.479 24.0341C243.689 25.6955 243.908 27.4245 244.104 29.2716C244.554 33.5133 244.829 38.0382 244.242 42.3201C244.024 43.9055 243.234 45.6802 242.317 46.8795C240.369 49.4271 237.557 49.3475 235.852 48.918C234.374 48.546 232.98 47.762 232.269 47.3623C232.213 47.3307 232.161 47.3015 232.114 47.2751C225.659 43.6751 219.947 36.5252 216.298 30.6059C216.316 31.3736 216.338 32.1558 216.36 32.9489C216.491 37.6299 216.633 42.6908 216.095 47.3913C216.087 47.4681 216.078 47.546 216.069 47.6248C215.986 48.3549 215.894 49.1618 215.774 49.8452C215.705 50.232 215.611 50.679 215.47 51.1186C215.345 51.5107 215.098 52.1728 214.593 52.7923C214.013 53.5049 212.96 54.2871 211.481 54.2676C210.218 54.2509 209.312 53.6423 208.864 53.284C207.979 52.576 207.242 51.5014 206.625 50.4964C204.303 46.7118 202.591 42.7871 200.949 39.0221C200.805 38.6902 200.661 38.3596 200.517 38.0305C199.614 35.9668 198.832 33.5797 198.104 31.3595C197.816 30.4776 197.535 29.622 197.259 28.8236C196.217 25.8041 195.154 23.296 193.726 21.4399C192.547 19.9078 192.834 17.7103 194.366 16.5317C195.898 15.3532 198.096 15.6398 199.274 17.1719C201.44 19.9873 202.8 23.4232 203.876 26.5383C204.24 27.5916 204.567 28.5932 204.881 29.5511C205.557 31.6181 206.167 33.4821 206.93 35.2247C207.066 35.5354 207.2 35.8437 207.334 36.1498C208.059 37.8103 208.755 39.4044 209.477 40.9495C209.511 38.5944 209.443 36.2055 209.373 33.75C209.313 31.6546 209.252 29.5106 209.252 27.298C209.252 26.8124 209.369 25.8587 209.47 25.0825C209.589 24.1608 209.75 23.0216 209.923 21.9183C210.093 20.8271 210.282 19.7191 210.457 18.8813C210.539 18.4872 210.642 18.035 210.765 17.6527L210.766 17.6482C210.809 17.5143 210.943 17.0953 211.206 16.669C211.208 16.6665 211.209 16.6638 211.211 16.6609C211.305 16.5091 211.732 15.8147 212.609 15.3586C213.151 15.0769 213.933 14.8546 214.841 15.0126C215.728 15.1671 216.355 15.6191 216.731 15.995C218.484 17.7476 219.419 20.1125 220.05 21.8296C220.22 22.2928 220.372 22.7173 220.512 23.1086C220.983 24.4294 221.32 25.3713 221.779 26.1445C225.187 31.875 230.369 38.287 235.523 41.1616C235.561 41.1827 235.599 41.2035 235.635 41.2241C236.005 41.4306 236.334 41.614 236.683 41.7833C236.842 41.8605 236.985 41.9244 237.112 41.9765C237.212 41.7414 237.287 41.5108 237.307 41.3682C237.776 37.9513 237.578 34.1117 237.143 30.0099C236.982 28.4895 236.778 26.866 236.572 25.224C236.252 22.6795 235.927 20.0906 235.746 17.7721C235.596 15.8449 237.037 14.1609 238.964 14.0108ZM237.695 42.156C237.695 42.1561 237.694 42.156 237.691 42.1557C237.694 42.1558 237.695 42.156 237.695 42.156Z" fill="#FCFCFC"/>
</svg>
