<svg width="357" height="178" viewBox="0 0 357 178" fill="none" xmlns="http://www.w3.org/2000/svg">
<path fill-rule="evenodd" clip-rule="evenodd" d="M66.5367 136.186C68.3919 135.643 69.4558 133.699 68.9129 131.844C68.3701 129.989 66.4261 128.925 64.5709 129.467C63.5078 129.779 62.4595 130.093 61.4215 130.405L61.4214 130.405C58.2565 131.354 55.1881 132.275 52.0934 132.978C51.8179 133.041 51.5232 133.106 51.2132 133.174C49.7034 133.508 47.8329 133.921 46.0695 134.514C45.5935 134.674 45.1036 134.854 44.6089 135.058C43.4157 135.058 42.3561 135.658 41.7238 136.578C40.9916 137.07 40.291 137.642 39.6557 138.315C38.3284 139.72 38.3916 141.935 39.7968 143.263C40.6061 144.027 41.684 144.33 42.7062 144.182C42.7165 144.338 42.7263 144.498 42.7354 144.661C42.8163 146.109 42.8419 147.635 42.8574 148.964C42.8595 149.143 42.8614 149.323 42.8632 149.503L42.8632 149.504L42.8632 149.504L42.8632 149.504C42.874 150.541 42.8846 151.563 42.9347 152.135C43.2621 155.878 44.2874 159.507 45.2158 162.794C45.5808 164.086 45.9309 165.325 46.2178 166.498C46.504 167.668 47.0459 168.987 48.1788 169.966C49.4179 171.036 50.8482 171.266 51.9914 171.187C53.0234 171.115 53.9683 170.785 54.6141 170.536C54.9355 170.412 55.4543 170.194 55.8819 170.014C56.1356 169.907 56.3572 169.814 56.4864 169.762C62.036 167.528 67.1467 165.706 72.7798 164.253C74.6516 163.77 75.7776 161.862 75.2948 159.99C74.812 158.118 72.9033 156.992 71.0316 157.475C65.0023 159.03 59.5862 160.968 53.8723 163.269C53.562 163.393 53.2559 163.523 52.9893 163.636L52.989 163.637L52.9888 163.637L52.8808 163.682L52.7419 163.741C52.4138 162.474 52.0815 161.302 51.7641 160.183L51.764 160.183L51.764 160.183C51.5721 159.507 51.3856 158.849 51.2089 158.202C51.6288 157.819 52.3655 157.456 53.7303 157.059C54.0343 156.97 54.4237 156.868 54.8602 156.755C55.9773 156.463 57.4031 156.091 58.4971 155.652C59.4064 155.287 60.3954 154.852 61.3217 154.445L61.3219 154.445L61.322 154.445C61.834 154.22 62.3268 154.003 62.7764 153.812C64.1474 153.227 65.3813 152.752 66.5486 152.451C68.4204 151.969 69.5464 150.06 69.0636 148.188C68.5808 146.317 66.6721 145.191 64.8004 145.673C63.1138 146.108 61.4932 146.749 60.0302 147.373C59.4155 147.635 58.8561 147.881 58.3215 148.117C57.49 148.483 56.7183 148.823 55.8909 149.155C55.198 149.433 54.5507 149.599 53.7079 149.815L53.7078 149.815C53.1655 149.954 52.5423 150.114 51.7739 150.338C51.1982 150.505 50.5536 150.709 49.8849 150.977C49.8765 150.615 49.8708 150.109 49.8634 149.45L49.8569 148.882C49.8413 147.543 49.8147 145.885 49.7245 144.27C49.6611 143.137 49.5619 141.925 49.3894 140.813C50.4245 140.52 51.4909 140.284 52.5985 140.038C52.943 139.962 53.2915 139.885 53.6443 139.804C56.9944 139.043 60.3854 138.025 63.6024 137.059L63.6024 137.059C64.5994 136.76 65.5796 136.466 66.5367 136.186ZM53.0921 165.078C53.092 165.078 53.09 165.074 53.0864 165.065C53.0904 165.073 53.0922 165.077 53.0921 165.078Z" fill="#FCFCFC"/>
<path fill-rule="evenodd" clip-rule="evenodd" d="M5.92201 132.534C7.82728 132.208 9.63624 133.488 9.96242 135.393C11.4714 144.207 12.4691 153.321 11.4951 162.582C11.4496 163.014 11.396 163.456 11.3414 163.907C11.1923 165.135 11.0354 166.429 11.0146 167.766C11.001 168.642 11.0548 169.362 11.1697 169.907C11.186 169.984 11.2026 170.054 11.2191 170.116C11.8936 170.077 12.839 169.887 13.9818 169.555C15.7033 169.055 17.2468 168.441 18.4825 167.948C19.0282 167.731 19.5138 167.538 19.9283 167.389C26.4457 165.044 32.8726 163.193 39.4734 161.491C41.3452 161.008 43.2539 162.134 43.7366 164.006C44.2194 165.878 43.0934 167.786 41.2217 168.269C34.7424 169.94 28.5403 171.73 22.2975 173.975C22.1592 174.025 21.9005 174.128 21.5521 174.267C20.336 174.751 18.027 175.67 15.9341 176.277C14.54 176.682 12.9276 177.054 11.4102 177.114C10.0922 177.167 7.74852 177.035 6.13681 175.203C5.08327 174.004 4.57846 172.576 4.32023 171.351C4.05765 170.105 3.9974 168.816 4.01545 167.657C4.04269 165.908 4.26983 164.046 4.42514 162.773C4.46904 162.413 4.5072 162.1 4.53348 161.85C5.40866 153.528 4.53074 145.149 3.0628 136.575C2.73662 134.669 4.01673 132.86 5.92201 132.534ZM10.6705 170.101C10.6717 170.1 10.6905 170.102 10.7231 170.111C10.6855 170.107 10.6692 170.102 10.6705 170.101Z" fill="#FCFCFC"/>
<path fill-rule="evenodd" clip-rule="evenodd" d="M124.013 110.938C125.211 111.186 125.982 112.358 125.735 113.556C125.446 114.956 125.171 116.376 124.895 117.809C124.042 122.225 123.165 126.761 121.763 131.194C121.394 132.361 120.149 133.007 118.982 132.638C117.815 132.269 117.168 131.024 117.538 129.857C118.856 125.692 119.664 121.511 120.505 117.161C120.79 115.682 121.08 114.184 121.395 112.66C121.642 111.462 122.814 110.691 124.013 110.938Z" fill="#FCFCFC"/>
<path fill-rule="evenodd" clip-rule="evenodd" d="M148.51 122.293C149.85 122.458 151.795 123.012 153.031 124.84C154.113 126.442 153.692 128.617 152.091 129.7C150.662 130.666 148.776 130.435 147.617 129.236C147.206 129.192 146.542 129.223 145.643 129.377C143.978 129.664 142.263 130.229 141.202 130.578C141.094 130.614 140.994 130.647 140.901 130.677C138.967 131.309 137.065 131.978 135.413 132.876C133.763 133.772 132.624 134.758 131.975 135.875C131.76 136.245 131.702 136.463 131.686 136.554C131.708 136.585 131.747 136.634 131.814 136.702C132.391 137.285 133.804 138.015 136.192 138.665C139.613 139.596 143.41 139.997 146.244 140.297C147.321 140.41 148.26 140.51 148.985 140.618C149.265 140.659 149.649 140.702 150.197 140.764C150.716 140.822 151.338 140.892 151.992 140.98C153.262 141.152 154.847 141.419 156.271 141.906C157.478 142.318 159.624 143.226 160.616 145.364C161.819 147.959 160.578 150.393 159.227 152.004C152.843 159.612 141.969 162.296 133.861 163.461C131.948 163.736 130.174 162.408 129.899 160.495C129.624 158.581 130.952 156.807 132.865 156.532C140.453 155.442 148.467 153.179 153.159 148.29C152.543 148.144 151.826 148.022 151.052 147.917C150.49 147.841 149.943 147.779 149.418 147.72L149.349 147.713C148.873 147.659 148.369 147.603 147.955 147.541C147.599 147.488 146.989 147.424 146.199 147.341C143.421 147.05 138.41 146.523 134.354 145.419C131.776 144.718 128.797 143.606 126.837 141.624C125.777 140.552 124.912 139.119 124.72 137.328C124.53 135.56 125.043 133.875 125.921 132.361C127.456 129.718 129.806 127.955 132.072 126.724C134.336 125.495 136.775 124.661 138.728 124.023C138.807 123.997 138.899 123.967 139.004 123.932C140.029 123.592 142.239 122.86 144.457 122.479C145.67 122.27 147.12 122.122 148.51 122.293ZM154.628 148.804C154.628 148.804 154.626 148.803 154.623 148.8C154.627 148.803 154.628 148.804 154.628 148.804ZM154.161 147.105C154.169 147.085 154.175 147.075 154.175 147.075C154.176 147.075 154.172 147.085 154.161 147.105ZM131.662 136.512C131.662 136.512 131.665 136.517 131.668 136.526C131.663 136.516 131.661 136.512 131.662 136.512ZM131.681 136.595C131.681 136.602 131.681 136.605 131.681 136.605C131.681 136.605 131.681 136.602 131.681 136.595ZM147.842 129.275C147.842 129.276 147.832 129.274 147.816 129.268C147.835 129.272 147.843 129.275 147.842 129.275Z" fill="#FCFCFC"/>
<path fill-rule="evenodd" clip-rule="evenodd" d="M94.8353 129.472C93.7056 127.903 91.5182 127.547 89.9497 128.677C88.8518 129.468 88.3481 130.777 88.5321 132.029C88.4324 132.039 88.333 132.05 88.2337 132.061C84.6447 132.46 80.5236 133.237 77.1104 135.685C75.5397 136.811 75.1797 138.998 76.3063 140.569C77.433 142.139 79.6196 142.499 81.1903 141.373C83.0662 140.027 85.6529 139.391 89.007 139.018C90.109 138.896 91.2001 138.809 92.334 138.722C96.2052 145.992 98.961 155.151 99.6313 162.812C99.7997 164.738 101.497 166.162 103.423 165.994C105.349 165.826 106.773 164.128 106.605 162.202C105.932 154.518 103.428 145.551 99.7373 137.856C102.449 137.342 105.172 137.151 108.1 136.945L108.101 136.944C109.293 136.861 110.519 136.774 111.792 136.663C113.717 136.494 115.142 134.797 114.973 132.871C114.805 130.946 113.107 129.521 111.182 129.69C110.174 129.778 109.11 129.853 108.011 129.93C104.843 130.152 101.379 130.396 98.118 131.04C97.487 131.164 96.8216 131.265 96.1186 131.351C95.6999 130.705 95.2719 130.078 94.8353 129.472Z" fill="#FCFCFC"/>
<path fill-rule="evenodd" clip-rule="evenodd" d="M342.858 116.271C344.5 117.292 345.003 119.45 343.983 121.091C339.904 127.652 336.047 134.269 332.28 140.987C338.794 147.363 346.317 152.168 354.451 157.363L354.742 157.549C356.371 158.59 356.848 160.754 355.808 162.383C354.767 164.012 352.603 164.489 350.974 163.448L350.388 163.074C342.976 158.341 335.479 153.553 328.772 147.314C328.311 148.154 327.85 148.997 327.391 149.841C326.94 150.667 326.205 151.24 325.373 151.503L325.384 151.566C325.902 154.457 326.452 157.527 326.72 160.589C326.889 162.514 325.464 164.212 323.539 164.38C321.613 164.549 319.915 163.124 319.747 161.199C319.509 158.477 319.041 155.866 318.541 153.075L318.541 153.075C318.35 152.012 318.155 150.922 317.966 149.79C317.652 147.911 317.388 145.983 317.13 144.09L317.104 143.895C316.852 142.052 316.605 140.239 316.315 138.442C315.713 134.712 314.951 131.236 313.71 128.143C312.991 126.349 313.862 124.312 315.656 123.592C317.45 122.872 319.488 123.743 320.207 125.537C321.734 129.342 322.594 133.413 323.226 137.326C323.463 138.794 323.671 140.266 323.869 141.705C328.401 133.504 333.05 125.419 338.038 117.396C339.059 115.754 341.217 115.251 342.858 116.271Z" fill="#FCFCFC"/>
<path fill-rule="evenodd" clip-rule="evenodd" d="M249.158 131.241C247.601 132.448 246.147 133.769 244.883 135.227C240.876 139.847 238.816 145.803 240.844 153.337C242.681 160.161 247.258 165.208 254.284 167.14C257.719 168.085 261.83 167.704 265.395 166.572C268.936 165.448 272.622 163.362 274.774 160.207C277.09 156.81 277.703 152.389 277.467 148.459C277.228 144.489 276.089 140.4 274.228 137.371C271.559 133.028 268.056 130.317 264.193 128.569C264.247 127.935 264.128 127.279 263.814 126.672C262.928 124.954 260.816 124.281 259.099 125.168C258.388 125.535 257.663 125.915 256.933 126.311C255.397 126 253.851 125.767 252.319 125.576C250.401 125.337 248.652 126.699 248.413 128.617C248.292 129.595 248.586 130.529 249.158 131.241ZM257.982 133.753C254.867 135.583 252.14 137.543 250.171 139.813C247.533 142.856 246.24 146.451 247.603 151.517C248.851 156.151 251.705 159.172 256.14 160.391C257.9 160.875 260.578 160.757 263.276 159.9C265.999 159.036 268.05 157.642 268.99 156.263C270.096 154.641 270.666 151.989 270.479 148.879C270.295 145.81 269.404 142.892 268.263 141.035C265.841 137.093 262.399 134.99 257.982 133.753Z" fill="#FCFCFC"/>
<path fill-rule="evenodd" clip-rule="evenodd" d="M284.883 131.767C287.133 131.442 290.39 131.128 293.375 131.273C295.658 131.385 297.32 131.749 298.243 132.24C298.446 132.348 298.572 132.442 298.645 132.506C298.68 132.538 298.702 132.561 298.714 132.576C298.72 132.583 298.724 132.588 298.726 132.591L298.726 132.592L298.728 132.599C298.731 132.619 298.744 132.707 298.721 132.885C298.515 134.444 297.333 136.575 295.279 138.979C293.316 141.276 290.933 143.392 289.054 144.896C288.999 144.94 288.928 144.996 288.846 145.061C287.698 140.569 286.335 136.152 284.883 131.767ZM278.362 130.058C278.306 129.913 278.26 129.764 278.223 129.609C277.774 127.729 278.934 125.841 280.814 125.392C282.715 124.938 288.457 124.026 293.715 124.282C296.291 124.407 299.216 124.828 301.533 126.062C302.739 126.704 303.942 127.652 304.763 129.047C305.61 130.488 305.882 132.123 305.661 133.802C305.178 137.453 302.86 140.882 300.6 143.527C299.549 144.757 298.418 145.922 297.304 146.982C304.524 149.345 310.838 154.195 315.584 159.168C316.919 160.566 316.867 162.782 315.468 164.116C314.07 165.451 311.855 165.399 310.52 164.001C305.035 158.253 297.921 153.451 290.534 152.62C291.126 155.753 291.584 158.931 291.868 162.169C292.036 164.094 290.612 165.792 288.686 165.961C286.76 166.129 285.063 164.705 284.894 162.779C284.011 152.686 281.276 143.061 277.953 133.109C277.597 132.043 277.783 130.926 278.362 130.058ZM290.667 152.59C290.666 152.591 290.649 152.593 290.619 152.595C290.653 152.591 290.668 152.59 290.667 152.59Z" fill="#FCFCFC"/>
<path fill-rule="evenodd" clip-rule="evenodd" d="M230.406 130.436C232.313 130.119 234.116 131.407 234.433 133.314C234.801 135.519 235.275 137.707 235.777 140.028C236.132 141.665 236.501 143.368 236.857 145.191C237.675 149.378 238.343 153.861 238.131 158.178C238.052 159.776 237.42 161.613 236.611 162.888C234.892 165.596 232.085 165.761 230.348 165.482C228.843 165.24 227.386 164.581 226.644 164.245C226.585 164.218 226.531 164.193 226.481 164.171C219.737 161.148 213.424 154.523 209.272 148.944C209.357 149.707 209.447 150.484 209.539 151.273C210.077 155.924 210.659 160.954 210.534 165.683C210.532 165.76 210.53 165.839 210.528 165.918C210.509 166.653 210.488 167.464 210.427 168.156C210.393 168.547 210.338 169 210.236 169.451C210.145 169.852 209.957 170.533 209.508 171.194C208.992 171.955 208.011 172.826 206.536 172.935C205.276 173.029 204.321 172.501 203.843 172.184C202.9 171.555 202.072 170.549 201.37 169.602C198.727 166.034 196.68 162.273 194.716 158.666C194.543 158.348 194.37 158.031 194.198 157.716C193.119 155.738 192.132 153.429 191.214 151.28C190.849 150.427 190.496 149.599 190.151 148.828C188.849 145.911 187.572 143.505 185.988 141.78C184.68 140.356 184.774 138.142 186.198 136.835C187.621 135.527 189.835 135.621 191.143 137.045C193.546 139.661 195.2 142.965 196.543 145.974C196.998 146.992 197.411 147.961 197.807 148.888C198.661 150.888 199.431 152.692 200.342 154.362C200.505 154.659 200.666 154.955 200.826 155.248C201.693 156.839 202.525 158.366 203.379 159.843C203.208 157.493 202.932 155.12 202.648 152.68C202.406 150.597 202.158 148.467 201.965 146.263C201.923 145.779 201.956 144.819 201.989 144.037C202.027 143.108 202.089 141.959 202.164 140.845C202.239 139.743 202.33 138.623 202.432 137.773C202.479 137.373 202.543 136.914 202.631 136.522L202.632 136.518C202.664 136.38 202.761 135.951 202.986 135.504C202.987 135.501 202.988 135.498 202.99 135.495C203.07 135.336 203.434 134.607 204.269 134.076C204.784 133.748 205.544 133.459 206.462 133.537C207.359 133.613 208.024 134.009 208.431 134.351C210.33 135.944 211.468 138.218 212.246 139.874C212.456 140.321 212.644 140.73 212.817 141.108C213.402 142.383 213.819 143.292 214.344 144.022C218.238 149.433 223.96 155.369 229.345 157.784C229.384 157.801 229.423 157.819 229.462 157.836C229.848 158.01 230.191 158.164 230.554 158.302C230.719 158.365 230.867 158.416 230.999 158.457C231.078 158.214 231.132 157.978 231.139 157.834C231.309 154.389 230.778 150.582 229.987 146.533C229.694 145.033 229.349 143.433 229 141.815C228.46 139.308 227.911 136.758 227.529 134.464C227.211 132.557 228.499 130.754 230.406 130.436ZM231.595 158.585C231.595 158.585 231.594 158.585 231.59 158.585C231.594 158.585 231.595 158.585 231.595 158.585Z" fill="#FCFCFC"/>
<path d="M174.357 70.0511C176.772 63.7335 178.988 57.3242 181.65 51.1151C185.488 42.1737 189.332 33.2094 193.77 24.5636C197.456 17.3797 202.119 10.731 209.689 6.91424C210.839 6.33481 212.367 6.29204 213.245 5.48187C213.884 4.88459 214.234 3.11642 213.808 2.45219C213.277 1.61925 211.683 0.780793 210.778 0.979035C205.976 2.02457 202.203 5.00348 199.02 8.55095C191.04 17.4419 185.83 28.034 181.31 38.9638C177.861 47.304 174.675 55.7544 171.398 64.1688C170.588 66.2537 169.906 68.3876 169.105 70.6833C168.19 67.4077 167.363 64.4038 166.516 61.4006C166.41 61.0249 166.305 60.5385 166.028 60.3305C165.172 59.695 164.227 59.1751 163.319 58.6069C162.941 59.5357 162.197 60.4828 162.251 61.389C162.37 63.2666 163.075 65.1063 163.237 66.9886C163.707 72.4824 163.933 78.0048 164.483 83.4898C164.594 84.6032 165.466 85.9864 166.402 86.5926C167.72 87.4505 169.364 87.199 170.422 85.7617C172.293 83.2275 174.012 80.5835 175.963 78.1163C176.971 76.8426 178.374 75.8858 179.539 74.7196C180.591 73.6721 182.225 72.6153 182.371 71.4135C182.503 70.3412 181.193 68.5053 180.073 67.9954C178.304 67.1873 176.54 68.0988 175.426 69.8474C175.313 70.0274 175.055 70.1098 174.861 70.2372C174.693 70.1752 174.531 70.1109 174.363 70.0489L174.357 70.0511Z" fill="#FCFCFC"/>
</svg>
