<svg width="365" height="175" viewBox="0 0 365 175" fill="none" xmlns="http://www.w3.org/2000/svg">
<path d="M323.006 34.9299C323.917 34.9953 324.765 35.4284 325.15 36.1007C336.745 56.4905 341.649 77.8437 346.833 100.461C351.199 119.478 355.717 139.142 364.586 158.201C364.832 158.736 364.741 159.311 364.337 159.763C363.933 160.215 363.257 160.503 362.5 160.53C249.418 165.106 134.742 169.975 21.6648 175.005C20.3853 175.068 19.2096 174.375 18.9802 173.432C9.43945 134.25 3.14461 94.3383 0.251931 54.7979C0.213072 54.3048 0.444564 53.8402 0.902818 53.4917C1.34878 53.1424 1.98074 52.9608 2.64899 52.9634C56.6968 53.5928 111.225 51.8415 164.709 47.7363C166.066 47.6339 167.313 48.359 167.514 49.354C167.715 50.349 166.784 51.2447 165.44 51.3479C112.591 55.3989 58.7416 57.1807 5.31986 56.6235C8.22101 94.8389 14.3156 133.402 23.4423 171.283C134.756 166.336 247.595 161.534 358.939 157.024C350.585 138.383 346.221 119.339 341.986 100.903C336.989 79.1253 332.266 58.5297 321.548 39.0291C294.469 45.6926 241.88 48.8725 212.238 48.9963C210.888 49.0083 209.721 48.1891 209.644 47.1939C209.58 46.1906 210.616 45.3751 211.979 45.364C241.262 45.2416 296.464 41.8681 321.947 35.0174C322.301 34.9247 322.662 34.8961 323.006 34.9208L323.006 34.9299Z" fill="white"/>
<path d="M206.167 0.792739C206.278 0.800695 206.377 0.807769 206.486 0.833792C207.636 1.02528 208.473 1.7845 208.498 2.63979C209.004 17.3124 210.948 32.1427 214.283 46.7188C214.509 47.7156 213.602 48.622 212.256 48.7434C210.911 48.8647 209.637 48.1558 209.412 47.1591C206.643 35.0297 204.816 22.7228 203.975 10.4686C194.548 25.0456 182.514 38.5365 168.114 50.6591C167.244 51.3957 165.681 51.4469 164.641 50.7639C163.6 50.0809 163.46 48.9358 164.342 48.2002C180.718 34.4035 193.981 18.8035 203.753 1.8361C204.162 1.13006 205.132 0.727535 206.154 0.80091L206.167 0.792739Z" fill="white"/>
<path fill-rule="evenodd" clip-rule="evenodd" d="M48.0128 96.3474C52.2565 94.5934 57.2326 94.9418 61.7178 96.7673C63.0285 97.3008 63.6586 98.7958 63.1251 100.106C63.0376 100.322 62.9241 100.518 62.7898 100.695C68.4049 105.51 72.4207 113.016 68.6263 121.364C65.4863 128.273 57.7945 130.808 51.2467 128.151C43.3807 124.958 37.7834 116.878 39.3914 107.845C40.4263 102.031 43.6499 98.1506 48.0128 96.3474ZM57.6149 100.794C54.8191 100.076 52.1325 100.19 49.9702 101.083C47.3712 102.158 45.1939 104.489 44.4367 108.743C43.3207 115.012 47.1699 120.966 53.1737 123.402C57.372 125.106 62.0442 123.461 63.961 119.244C66.598 113.442 63.7823 107.825 58.4495 103.774C57.5141 103.064 57.2038 101.835 57.6149 100.794Z" fill="white"/>
<path fill-rule="evenodd" clip-rule="evenodd" d="M95.0246 95.0114C99.0417 95.0133 102.989 96.7734 106.234 99.0422C107.182 99.7047 107.544 100.892 107.202 101.937C107.54 102.292 107.86 102.66 108.161 103.039C110.722 106.267 112.215 110.67 111.28 114.888C110.201 119.76 106.957 122.941 103.067 124.549C99.2489 126.127 94.7886 126.218 90.8828 125.085C85.7844 123.605 82.8794 119.296 81.835 114.801C80.7976 110.337 81.4562 105.217 83.9631 101.385C86.8715 96.9387 90.8239 95.0095 95.0246 95.0114ZM94.6428 100.144C92.375 100.246 90.1477 101.292 88.2516 104.19C86.613 106.695 86.0607 110.346 86.8265 113.641C87.5854 116.907 89.4979 119.347 92.311 120.163C95.221 121.008 98.4772 120.901 101.109 119.813C103.669 118.755 105.608 116.802 106.277 113.779C106.801 111.415 105.993 108.551 104.147 106.225C102.306 103.905 99.7677 102.536 97.3048 102.633C95.8908 102.688 94.6994 101.587 94.6438 100.173C94.6434 100.163 94.6431 100.154 94.6428 100.144Z" fill="white"/>
<path fill-rule="evenodd" clip-rule="evenodd" d="M141.932 94.5705C142.839 94.0524 144.01 94.1246 144.855 94.8373C148.803 98.1674 152.413 104.11 153.424 109.908C153.935 112.843 153.818 115.958 152.513 118.73C151.174 121.575 148.716 123.779 145.109 125.021C141.65 126.211 137.827 125.627 134.605 124.284C131.371 122.936 128.372 120.674 126.523 117.978C125.049 115.829 123.462 112.721 122.858 109.496C122.252 106.265 122.571 102.406 125.689 99.6333C129.992 95.8065 136.167 93.869 141.932 94.5705ZM142.78 99.9194C138.178 98.8263 132.719 100.239 129.094 103.463C127.861 104.56 127.461 106.236 127.895 108.551C128.33 110.872 129.541 113.319 130.749 115.079C131.946 116.825 134.091 118.518 136.577 119.554C139.076 120.596 141.549 120.826 143.441 120.175C145.883 119.334 147.189 118.009 147.876 116.548C148.598 115.015 148.769 113.045 148.375 110.789C147.684 106.824 145.366 102.642 142.78 99.9194Z" fill="white"/>
<path fill-rule="evenodd" clip-rule="evenodd" d="M202.985 96.9603C204.344 97.3547 205.126 98.7761 204.732 100.135C202.858 106.592 200.927 112.92 198.149 119.225C198.122 119.285 198.076 119.398 198.013 119.551C197.704 120.308 196.989 122.053 196.236 123.342C195.995 123.753 195.71 124.192 195.385 124.587C195.09 124.945 194.608 125.459 193.93 125.794C193.125 126.192 191.968 126.348 190.873 125.671C189.992 125.125 189.562 124.274 189.338 123.706C187.729 119.614 186.557 115.596 185.66 111.3C185.393 110.021 185.258 108.737 185.178 107.505C185.108 107.63 185.054 107.729 185.019 107.796C184.757 108.295 184.495 108.79 184.234 109.283C182.276 112.983 180.398 116.532 179.164 120.246C179.067 120.537 178.822 121.16 178.201 121.651C177.407 122.278 176.441 122.356 175.662 122.102C175.045 121.901 174.641 121.532 174.458 121.349C174.241 121.133 174.071 120.908 173.947 120.728C173.486 120.061 173.052 119.116 172.718 118.332C172.032 116.718 171.368 114.784 171.289 114.478C170.493 111.399 170.121 108.185 169.777 105.208C169.709 104.628 169.643 104.056 169.575 103.496C169.506 102.93 169.481 102.238 169.459 101.63C169.458 101.605 169.457 101.58 169.456 101.555C169.431 100.878 169.406 100.214 169.348 99.5733C169.288 98.926 169.203 98.3998 169.088 98.0047C169.001 97.7039 168.928 97.5881 168.92 97.5726C167.941 96.5736 167.944 94.9705 168.932 93.9748C169.929 92.9706 171.552 92.9647 172.556 93.9617C173.361 94.7615 173.775 95.7648 174.011 96.5789C174.255 97.4223 174.378 98.3135 174.451 99.1076C174.523 99.8995 174.552 100.692 174.576 101.344L174.577 101.366C174.603 102.075 174.623 102.551 174.662 102.878C174.738 103.498 174.809 104.111 174.879 104.716C175.226 107.69 175.551 110.49 176.25 113.195C176.249 113.189 176.262 113.227 176.288 113.302C176.305 113.353 176.329 113.42 176.357 113.502C177.415 111.206 178.589 108.99 179.71 106.873C179.971 106.381 180.23 105.893 180.483 105.412C180.796 104.815 181.912 102.882 182.943 101.191C183.46 100.343 183.988 99.5035 184.405 98.8962C184.599 98.6139 184.833 98.2871 185.06 98.0309C185.062 98.0285 185.065 98.0255 185.068 98.0221C185.139 97.9416 185.431 97.6097 185.867 97.3676C186.023 97.2807 186.875 96.8071 187.957 97.1656C189.285 97.6051 189.621 98.78 189.692 99.1658C190.045 101.095 190.118 103.056 190.183 104.81C190.186 104.906 190.19 105.002 190.193 105.097C190.265 106.994 190.345 108.665 190.676 110.252C191.273 113.108 191.995 115.817 192.896 118.505C192.992 118.278 193.081 118.061 193.164 117.861C193.276 117.59 193.375 117.35 193.459 117.159C196.089 111.19 197.941 105.147 199.81 98.7069C200.204 97.3479 201.626 96.5659 202.985 96.9603ZM191.374 121.391C191.374 121.39 191.379 121.385 191.389 121.376C191.379 121.387 191.374 121.391 191.374 121.391ZM194.116 121.851C194.126 121.87 194.131 121.881 194.131 121.882C194.13 121.883 194.125 121.873 194.116 121.851ZM178.172 117.827C178.172 117.827 178.17 117.825 178.168 117.822C178.17 117.825 178.172 117.827 178.172 117.827Z" fill="white"/>
<path fill-rule="evenodd" clip-rule="evenodd" d="M249.612 96.1729C250.971 96.5673 251.753 97.9887 251.359 99.3478C251.062 100.37 250.769 101.405 250.473 102.45C249.278 106.67 248.043 111.033 246.38 115.233C246.38 115.234 246.379 115.237 246.377 115.243L246.367 115.269C246.358 115.293 246.348 115.323 246.334 115.362C246.307 115.442 246.275 115.538 246.235 115.659L246.215 115.72C246.141 115.946 246.047 116.23 245.941 116.533C245.715 117.18 245.394 118.027 244.976 118.799C244.628 119.439 243.92 120.604 242.678 121.169C241.939 121.505 241.062 121.604 240.174 121.32C239.355 121.058 238.741 120.54 238.298 120.036C235.444 116.793 233.874 112.71 232.868 108.738C232.512 107.335 232.219 105.904 231.963 104.492C231.418 105.479 230.872 106.448 230.332 107.407C228.806 110.117 227.323 112.75 226.011 115.514C226.012 115.512 226.01 115.517 226.003 115.531L225.979 115.586L225.899 115.763C225.836 115.904 225.753 116.087 225.658 116.288C225.474 116.675 225.212 117.198 224.908 117.675C224.757 117.912 224.56 118.195 224.32 118.462C224.116 118.688 223.694 119.118 223.055 119.376C222.239 119.707 221.139 119.707 220.216 118.976C219.518 118.424 219.243 117.689 219.125 117.308C218.811 116.292 218.606 115.283 218.436 114.368C218.388 114.112 218.344 113.868 218.301 113.631C218.184 112.982 218.077 112.392 217.942 111.79C217.37 109.254 217.084 106.62 216.818 104.16C216.772 103.735 216.726 103.315 216.68 102.902C216.357 100.017 215.989 97.3782 215.189 94.9466C214.747 93.6022 215.479 92.1542 216.823 91.7122C218.168 91.2703 219.616 92.0018 220.058 93.3461C221.037 96.3258 221.447 99.429 221.773 102.332C221.823 102.78 221.871 103.223 221.919 103.661C222.175 106.015 222.415 108.216 222.871 110.345C223.876 108.428 224.948 106.523 225.994 104.663C226.799 103.231 227.59 101.827 228.322 100.465C228.356 100.402 228.389 100.34 228.422 100.279C229.373 98.5126 230.185 97.0032 230.643 95.4264C230.687 95.2746 230.748 95.0787 230.827 94.8876C230.864 94.7982 230.939 94.627 231.059 94.4369C231.06 94.4346 231.062 94.4317 231.064 94.4282C231.127 94.327 231.496 93.732 232.265 93.4107C232.777 93.1968 233.443 93.118 234.125 93.3612C234.743 93.582 235.118 93.9773 235.307 94.224C235.637 94.6546 235.745 95.0837 235.771 95.1843L235.772 95.1902C235.842 95.4643 235.858 95.7146 235.863 95.7937L235.864 95.7981C235.874 95.9589 235.878 96.1726 235.881 96.2985C235.881 96.3263 235.882 96.3499 235.882 96.3676C235.884 96.457 235.887 96.5039 235.888 96.5203C236.017 97.3324 236.141 98.1527 236.266 98.9781C236.69 101.794 237.124 104.669 237.836 107.48C238.572 110.385 239.559 113.005 240.994 115.149C241.031 115.048 241.068 114.945 241.104 114.841C241.194 114.584 241.274 114.342 241.349 114.113L241.375 114.036C241.444 113.825 241.533 113.556 241.615 113.347C243.173 109.412 244.32 105.365 245.508 101.171C245.813 100.097 246.12 99.0135 246.437 97.9196C246.832 96.5605 248.253 95.7785 249.612 96.1729Z" fill="white"/>
<path fill-rule="evenodd" clip-rule="evenodd" d="M293.908 94.3719C295.267 94.7662 296.049 96.1877 295.655 97.5467C294.054 103.061 291.819 108.367 289.428 113.442C289.358 113.592 289.293 113.756 289.199 113.995C289.119 114.196 289.019 114.451 288.876 114.796C288.621 115.411 288.264 116.216 287.802 116.936C287.4 117.562 286.61 118.627 285.296 119.057C283.624 119.605 282.169 118.857 281.214 117.884C280.428 117.082 279.932 116.046 279.599 115.153C279.251 114.217 278.995 113.193 278.802 112.224C278.428 110.353 278.24 108.44 278.131 107.328C278.127 107.289 278.123 107.251 278.12 107.214C278.055 106.558 277.996 105.903 277.941 105.249C277.243 106.732 276.534 108.238 275.776 109.779C275.684 109.965 275.542 110.299 275.327 110.8C275.252 110.976 275.168 111.172 275.074 111.39C274.74 112.166 274.324 113.116 273.869 114.043C273.423 114.952 272.895 115.932 272.324 116.733C272.04 117.131 271.69 117.565 271.273 117.934C270.89 118.274 270.218 118.769 269.292 118.896C268.168 119.049 267.299 118.554 266.795 118.109C266.321 117.69 266.005 117.187 265.797 116.799C265.372 116.006 265.043 115 264.774 113.997C264.223 111.941 263.753 109.219 263.36 106.502C262.964 103.763 262.632 100.932 262.37 98.6244C262.322 98.2029 262.277 97.8033 262.234 97.4276C262.037 95.6817 261.898 94.4517 261.81 93.9397C261.57 92.5451 262.507 91.22 263.901 90.9801C265.296 90.7402 266.621 91.6763 266.861 93.071C266.977 93.7446 267.139 95.186 267.335 96.9255C267.376 97.2875 267.418 97.6624 267.462 98.046C267.723 100.346 268.048 103.111 268.432 105.768C268.737 107.876 269.071 109.855 269.428 111.455C269.766 110.748 270.085 110.021 270.367 109.365C270.431 109.215 270.496 109.064 270.56 108.913C270.795 108.364 271.02 107.837 271.177 107.517C271.861 106.128 272.544 104.678 273.237 103.206C274.501 100.523 275.801 97.7638 277.206 95.1518C277.327 94.9277 277.569 94.5038 277.975 94.1427C278.189 93.9521 278.589 93.652 279.174 93.514C279.841 93.3565 280.539 93.462 281.129 93.8075C282.031 94.3367 282.312 95.2057 282.368 95.3765C282.369 95.3809 282.37 95.3848 282.371 95.3883C282.471 95.6941 282.517 95.983 282.54 96.1691C282.614 96.7466 282.616 97.9223 282.608 97.7471C282.743 100.76 282.927 103.742 283.22 106.712L283.226 106.779C283.337 107.905 283.504 109.603 283.827 111.22C283.935 111.764 284.056 112.269 284.189 112.719C284.257 112.553 284.321 112.392 284.386 112.228C284.411 112.166 284.436 112.103 284.461 112.039C284.558 111.796 284.675 111.507 284.792 111.258C287.128 106.299 289.239 101.267 290.733 96.1185C291.127 94.7595 292.549 93.9775 293.908 94.3719ZM284.903 114.325C284.903 114.325 284.902 114.324 284.899 114.321C284.902 114.323 284.903 114.325 284.903 114.325ZM270.355 114.449C270.355 114.449 270.352 114.446 270.348 114.439C270.352 114.445 270.355 114.449 270.355 114.449ZM281.719 97.5795C281.734 97.5509 281.734 97.5568 281.715 97.5868C281.716 97.5844 281.718 97.5819 281.719 97.5795ZM277.456 96.8109C277.455 96.8039 277.454 96.8002 277.454 96.8C277.454 96.7999 277.455 96.8034 277.456 96.8109Z" fill="white"/>
<path fill-rule="evenodd" clip-rule="evenodd" d="M318.001 79.9236C318.383 78.1723 317.602 76.5716 316.257 76.3485C314.912 76.1254 313.513 77.3642 313.131 79.1156C311.82 85.1316 309.673 90.5987 307.342 96.5344L307.342 96.5344C306.804 97.9035 306.257 99.2976 305.708 100.729C305.066 102.401 305.553 104.216 306.795 104.783C308.037 105.35 309.564 104.454 310.206 102.782C310.7 101.494 311.21 100.196 311.726 98.8853L311.726 98.8853C314.076 92.9121 316.529 86.6751 318.001 79.9236ZM305.655 115.629C304.711 114.519 303.11 114.732 302.079 116.105C301.048 117.478 300.977 119.491 301.92 120.601L302.782 121.615C303.726 122.725 305.327 122.512 306.359 121.139C307.39 119.766 307.461 117.753 306.517 116.643L305.655 115.629Z" fill="white"/>
</svg>
